<svg width="287" height="151" viewBox="0 0 287 151" fill="none" xmlns="http://www.w3.org/2000/svg">
<path d="M173.138 45.1903C174.036 42.0608 174.501 38.8686 174.501 35.4262C174.501 15.8667 158.795 0 139.402 0C120.041 0 104.304 15.8667 104.304 35.4575C104.304 38.8061 104.768 42.0608 105.636 45.159L173.138 45.1903Z" fill="#ED1C2A"/>
<path d="M187.728 48.6641H91.3545V55.7055H142.841L111.459 60.9318L111.521 67.003L134.353 68.4739L125.617 70.4142L125.555 77.2366L151.855 82.1499L153.9 75.3589L144.359 74.0445L164.587 70.1326V63.4041L146 62.3714L187.728 55.5177V48.6641Z" fill="#ED1C2A"/>
<path d="M93.3993 112.412C93.3993 112.412 88.009 112.224 88.009 107.248V102.429C92.5938 102.429 96.7139 102.429 96.7139 102.429V98.5483H76.0823C75.091 98.6109 74.2856 99.4559 74.2856 100.489C74.2856 101.553 75.153 102.429 76.2062 102.429C76.2372 102.429 78.8084 102.429 82.5258 102.429V107.248C82.5258 107.248 82.5878 112.506 75.5867 112.506C74.5334 112.506 73.666 113.382 73.666 114.446C73.666 115.51 74.5024 116.387 75.5867 116.387C75.5867 116.387 83.672 116.261 85.2519 112.224C86.7079 115.667 91.2308 116.293 93.5851 116.293C95.9395 116.293 96.9927 116.293 96.9927 116.293V112.443H93.3993V112.412Z" fill="black"/>
<path d="M105.82 100.051C105.82 98.5487 104.612 97.2969 103.094 97.2969C101.576 97.2969 100.368 98.5174 100.368 100.051C100.368 100.082 100.368 124.586 100.368 124.586H105.82C105.851 124.586 105.82 100.082 105.82 100.051Z" fill="black"/>
<path d="M270.906 112.381C270.906 112.381 265.516 112.193 265.516 107.217V106.529H265.547V100.551C265.547 99.0492 264.339 97.7974 262.821 97.7974C261.334 97.7974 260.126 99.0179 260.126 100.551C260.126 100.551 260.126 101.083 260.126 101.803H260.064V107.249C260.064 107.249 260.095 112.506 253.125 112.506C252.072 112.506 251.204 113.382 251.204 114.446C251.204 115.51 252.072 116.387 253.125 116.387C253.125 116.387 260.962 116.355 262.542 112.318C263.998 115.761 268.8 116.262 271.123 116.262C273.478 116.262 274.562 116.262 274.562 116.262V112.412H270.906V112.381Z" fill="black"/>
<path d="M284.97 102.773C284.908 102.773 283.886 102.773 282.802 102.773C282.802 101.334 282.802 99.9254 282.802 99.9254C282.802 98.4232 281.594 97.1714 280.107 97.1714C278.62 97.1714 277.381 98.3919 277.381 99.9254C277.381 99.9567 277.35 124.555 277.35 124.555H282.802C282.802 124.555 282.802 109.095 282.802 106.623H285.094C286.147 106.56 286.984 105.715 286.984 104.682C286.953 103.649 286.086 102.773 284.97 102.773Z" fill="black"/>
<path d="M177.041 102.742C176.979 102.742 175.957 102.742 174.873 102.742C174.873 101.303 174.873 99.8633 174.873 99.8633C174.873 98.3611 173.665 97.1406 172.147 97.1406C170.66 97.1406 169.452 98.3611 169.452 99.8633C169.452 99.8946 169.452 105.09 169.452 108.282H150.833C150.833 106.122 150.803 100.521 150.803 100.521C150.803 99.0183 149.594 97.7665 148.076 97.7665C146.589 97.7665 145.35 98.987 145.35 100.521C145.35 100.552 145.319 109.252 145.319 109.252C145.319 109.283 145.319 109.314 145.319 109.346C145.319 110.817 146.466 112.006 147.891 112.068V112.131C147.922 112.131 149.439 112.131 151.701 112.131C151.701 115.855 151.701 121.833 151.701 121.864C151.701 123.272 152.754 124.43 154.117 124.587V124.649C154.241 124.649 175.43 124.649 175.43 124.649V120.769H157.153C157.153 118.766 157.153 114.916 157.153 112.131C163.442 112.131 171 112.131 171 112.131V112.1H174.842C174.842 112.1 174.842 109.095 174.842 106.623H177.134C178.187 106.56 179.024 105.716 179.024 104.683C179.024 103.619 178.125 102.742 177.041 102.742Z" fill="black"/>
<path d="M140.828 124.899C140.828 124.899 140.828 100.051 140.828 100.02C140.828 98.5174 139.62 97.2656 138.102 97.2656C136.615 97.2656 135.376 98.4861 135.376 100.02C135.376 100.02 135.376 100.896 135.376 101.303H129.831C128.777 101.365 127.941 102.21 127.941 103.243C127.941 104.307 128.839 105.183 129.954 105.183C130.016 105.183 132.402 105.183 135.407 105.183C135.407 106.153 135.407 106.529 135.407 107.656H129.862C128.808 107.718 127.972 108.563 127.972 109.596C127.972 110.66 128.87 111.536 129.985 111.536C130.047 111.536 132.433 111.536 135.407 111.536C135.407 112.35 135.407 114.228 135.407 115.041H114.62C113.567 115.104 112.73 115.949 112.73 116.982C112.73 118.046 113.629 118.922 114.744 118.922C114.868 118.922 131.256 118.922 135.407 118.922C135.407 122.27 135.407 124.931 135.407 124.931H140.828V124.899Z" fill="black"/>
<path d="M118.586 97.8604C113.722 97.8604 109.757 101.397 109.757 105.778C109.757 110.159 113.722 113.696 118.586 113.696C123.449 113.696 127.415 110.159 127.415 105.778C127.415 101.397 123.449 97.8604 118.586 97.8604ZM118.493 109.846C116.324 109.846 114.558 108.031 114.558 105.778C114.558 103.525 116.324 101.71 118.493 101.71C120.661 101.71 122.427 103.525 122.427 105.778C122.427 108.031 120.692 109.846 118.493 109.846Z" fill="black"/>
<path d="M213.535 102.742C213.504 102.742 212.451 102.742 211.367 102.742C211.367 101.302 211.367 99.9566 211.367 99.9566C211.367 98.4544 210.158 97.2339 208.64 97.2339C207.123 97.2339 205.914 98.4544 205.914 99.9566C205.914 99.9879 205.914 106.81 205.883 110.879C204.985 110.597 203.994 110.409 202.971 110.409C202.569 110.409 202.166 110.44 201.763 110.472C202.011 110.065 202.135 109.595 202.135 109.095C202.135 109.063 202.135 109.032 202.135 109.001H202.166C202.166 109.001 202.135 100.457 202.135 100.426C202.135 98.8925 200.927 97.672 199.409 97.672C197.922 97.672 196.714 98.8925 196.714 100.426C196.714 100.457 196.714 105.903 196.714 108.062C196.59 108.031 196.435 108.031 196.28 108.031C196.187 108.031 189.031 108.031 186.708 108.031C186.708 107.374 186.708 106.435 186.708 105.496H194.143C195.196 105.433 196.001 104.588 196.001 103.556C196.001 102.491 195.103 101.615 193.988 101.615C193.895 101.615 188.783 101.615 186.677 101.615C186.677 101.146 186.677 100.457 186.677 100.457C186.677 98.9551 185.469 97.7033 183.982 97.7033C182.495 97.7033 181.256 98.9238 181.256 100.457C181.256 100.489 181.225 109.032 181.225 109.032C181.225 109.063 181.225 109.095 181.225 109.126C181.225 110.628 182.464 111.88 183.951 111.88C183.951 111.88 184.849 111.88 185.964 111.88H196.373C196.497 111.88 196.59 111.849 196.714 111.849C197.178 111.849 197.612 111.849 198.015 111.849C195.908 113.226 194.545 115.448 194.545 117.983C194.545 122.176 198.325 125.556 203.002 125.556C207.649 125.556 211.429 122.176 211.429 117.983C211.429 117.607 211.398 117.232 211.336 116.856C211.336 116.856 211.336 109.063 211.336 106.591H213.628C214.681 106.529 215.518 105.684 215.518 104.651C215.549 103.618 214.65 102.742 213.535 102.742ZM202.94 121.832C200.679 121.832 198.851 120.111 198.851 117.983C198.851 115.855 200.679 114.133 202.94 114.133C205.202 114.133 207.03 115.855 207.03 117.983C207.03 120.111 205.202 121.832 202.94 121.832Z" fill="black"/>
<path d="M249.469 110.191H246.898C246.96 109.94 247.022 109.69 247.022 109.408C247.022 109.377 247.022 101.209 247.022 101.209C247.022 101.178 247.022 101.146 247.022 101.115C247.022 99.6441 245.907 98.4549 244.451 98.3923V98.2984C244.358 98.2984 234.414 98.2984 227.691 98.2984V98.2671H220.164C219.11 98.3297 218.274 99.1747 218.274 100.207C218.274 101.271 219.172 102.148 220.287 102.148C220.318 102.148 221.031 102.148 221.96 102.148V102.179H241.539C241.539 104.338 241.539 109.408 241.539 109.408C241.539 109.69 241.57 109.94 241.663 110.191H233.949C233.949 108.563 233.949 106.623 233.949 106.592C233.949 105.089 232.741 103.838 231.223 103.838C229.736 103.838 228.497 105.058 228.497 106.592C228.497 106.592 228.497 108.563 228.497 110.191H217.314C216.26 110.253 215.424 111.098 215.424 112.131C215.424 113.195 216.322 114.071 217.437 114.071C217.468 114.071 220.442 114.071 225.523 114.071C224.841 115.167 224.439 116.45 224.439 117.795C224.439 121.989 228.218 125.369 232.896 125.369C237.573 125.369 241.353 121.989 241.353 117.795C241.353 116.45 240.95 115.167 240.268 114.071C244.729 114.071 249.407 114.071 249.407 114.071V110.191H249.469ZM232.865 121.801C230.541 121.801 228.683 119.986 228.683 117.764C228.683 115.542 230.572 113.727 232.865 113.727C235.188 113.727 237.078 115.542 237.078 117.764C237.078 120.017 235.219 121.801 232.865 121.801Z" fill="black"/>
<path d="M71.8699 111.129V107.343H69.8253V101.991C69.8253 100.019 68.2454 98.3921 66.2628 98.3921H41.4181C40.3958 98.3921 39.5594 99.2371 39.5594 100.27C39.5594 101.303 40.3958 102.148 41.4181 102.148C41.4181 102.148 61.5231 102.148 64.528 102.148C64.528 103.368 64.528 105.527 64.528 107.28H39.8382C38.7849 107.28 37.9795 108.125 37.9795 109.158C37.9795 110.19 38.8159 111.035 39.8382 111.035C39.8382 111.035 45.3214 111.035 52.1676 111.035V114.415H41.4181C40.3958 114.415 39.5594 115.26 39.5594 116.293C39.5594 117.326 40.3958 118.202 41.4181 118.202C41.4181 118.202 61.5231 118.202 64.528 118.202C64.528 120.424 64.528 124.711 64.528 124.711H69.8253V118.014C69.8253 116.043 68.2454 114.447 66.2628 114.447H57.6818V111.067C62.7312 111.129 67.9356 111.129 71.8699 111.129Z" fill="black"/>
<path d="M34.8197 107.342C34.7578 107.342 32.8061 107.342 32.4654 107.342V99.9568C32.4034 98.4234 31.1333 97.1715 29.5844 97.1715C28.0355 97.1715 26.7344 98.3921 26.6414 99.9568V120.925H9.51037V117.983C9.51037 117.232 9.23156 116.575 8.76689 116.043C9.78918 116.418 10.9044 116.637 12.0506 116.637C17.0691 116.637 21.0963 112.85 21.0963 108.219C21.0963 106.591 20.6006 105.089 19.7332 103.775H24.5969V99.8316H14.9935C14.8387 99.8316 14.7767 99.8316 14.5908 99.8316C14.5908 99.8316 14.5908 99.2057 14.5908 98.9867C14.5908 97.5158 13.4136 96.3266 11.9267 96.3266C10.4707 96.264 9.29352 97.4532 9.29352 98.9554V99.8316H1.79675C0.805439 99.8629 0 100.771 0 101.835C0 102.899 0.867395 103.775 1.92066 103.775C1.95164 103.775 3.22175 103.775 4.39893 103.775C3.53154 105.058 3.03588 106.591 3.03588 108.219C3.03588 111.035 4.52285 113.539 6.81525 115.041C6.75329 115.041 6.66036 115.01 6.5984 115.01C4.98752 115.01 3.68643 116.324 3.68643 117.952V122.302C3.96524 123.616 5.11144 124.617 6.53644 124.617C6.72231 124.617 6.90818 124.586 7.09405 124.617H32.4344L32.4654 111.254C32.93 111.254 34.7578 111.254 34.8197 111.254C35.904 111.254 36.7714 110.378 36.7714 109.283C36.7714 108.25 35.904 107.342 34.8197 107.342ZM12.0816 112.537C9.85113 112.537 8.02341 110.535 8.02341 108.062C8.02341 105.59 9.82015 103.556 12.0816 103.556C14.312 103.556 16.1397 105.559 16.1397 108.062C16.1397 110.535 14.312 112.537 12.0816 112.537Z" fill="black"/>
<path d="M3.99609 149.779V134.1H7.2798V141.454L11.9575 134.1H15.7989L10.7184 141.798L15.8918 149.779H11.9885L7.2798 142.174V149.779H3.99609Z" fill="black"/>
<path d="M85.0986 149.779V134.069H88.4443V149.779H85.0986Z" fill="black"/>
<path d="M121.59 149.779V134.069H124.936V149.779H121.59Z" fill="black"/>
<path d="M198.231 149.779V134.069H201.577V149.779H198.231Z" fill="black"/>
<path d="M162.853 134.1V139.482H157.804V134.1H154.489V149.779H157.804V142.862H162.853V149.779H166.199V134.1H162.853Z" fill="black"/>
<path d="M98.9748 137.542C98.0145 137.104 97.0541 136.729 95.8769 136.666C94.8237 136.603 93.4296 136.791 93.3367 138.419C93.2128 141.204 100.028 139.702 99.8732 145.397C99.7802 148.715 97.271 150.154 94.2041 150.154C92.5623 150.154 91.7258 149.998 90.3318 149.341L90.4247 145.898C91.478 146.493 92.8101 146.9 93.9873 146.9C95.1335 146.9 96.4346 146.743 96.6514 145.272C97.0541 142.237 90.084 144.208 90.084 138.481C90.084 134.882 92.7172 133.599 95.3813 133.599C96.6824 133.599 97.9835 134.131 99.0677 134.538L98.9748 137.542Z" fill="black"/>
<path d="M27.4149 141.986C27.4149 144.709 25.2464 146.9 22.5513 146.9C19.8562 146.9 17.6877 144.709 17.6877 141.986C17.6877 139.264 19.8562 137.073 22.5513 137.073C25.2464 137.073 27.4149 139.264 27.4149 141.986ZM22.5513 133.943C18.1524 133.943 14.5898 137.542 14.5898 141.986C14.5898 146.43 18.1524 150.029 22.5513 150.029C26.9502 150.029 30.5127 146.43 30.5127 141.986C30.5127 137.542 26.9502 133.943 22.5513 133.943Z" fill="black"/>
<path d="M258.08 141.986C258.08 144.709 255.88 146.9 253.216 146.9C250.521 146.9 248.353 144.709 248.353 141.986C248.353 139.264 250.521 137.073 253.216 137.073C255.911 137.073 258.08 139.264 258.08 141.986ZM253.216 133.943C248.817 133.943 245.255 137.542 245.255 141.986C245.255 146.43 248.817 150.029 253.216 150.029C257.615 150.029 261.178 146.43 261.178 141.986C261.178 137.542 257.615 133.943 253.216 133.943Z" fill="black"/>
<path d="M133.95 146.775C131.378 146.775 129.272 144.646 129.272 142.049C129.272 139.42 131.378 137.323 133.95 137.323C134.662 137.323 135.344 137.48 135.932 137.762V134.1C135.282 133.943 134.631 133.85 133.95 133.85C129.458 133.85 125.864 137.511 125.864 142.049C125.864 146.555 129.489 150.248 133.95 150.248C134.631 150.248 135.282 150.154 135.932 149.998V146.336C135.344 146.618 134.662 146.775 133.95 146.775Z" fill="black"/>
<path d="M243.243 146.775C240.671 146.775 238.565 144.646 238.565 142.049C238.565 139.42 240.671 137.323 243.243 137.323C243.955 137.323 244.606 137.48 245.225 137.762V134.1C244.606 133.943 243.924 133.85 243.243 133.85C238.782 133.85 235.157 137.511 235.157 142.049C235.157 146.555 238.782 150.248 243.243 150.248C243.924 150.248 244.575 150.154 245.225 149.998V146.336C244.606 146.618 243.955 146.775 243.243 146.775Z" fill="black"/>
<path d="M282.616 136.415C282.245 135.727 281.749 135.195 281.129 134.819C280.696 134.538 280.138 134.35 279.519 134.256C279.054 134.194 278.775 134.1 277.97 134.1H276.297C274.872 134.1 273.726 135.258 273.726 136.697L273.757 149.747H276.947V143.238H278.001C279.58 143.238 280.82 142.8 281.78 141.923C282.709 141.078 283.174 139.952 283.174 138.606C283.205 137.855 282.988 137.104 282.616 136.415ZM279.611 139.889C279.302 140.14 278.775 140.233 278.001 140.233H276.947V137.073H278.063C278.806 137.073 279.333 137.198 279.642 137.448C279.983 137.699 280.138 138.137 280.138 138.731C280.107 139.263 279.952 139.639 279.611 139.889Z" fill="black"/>
<path d="M211.862 143.739L211.8 134.194H215.146V147.432C215.146 148.715 214.124 149.904 212.854 149.904C211.893 149.904 211.088 149.247 210.654 148.433L206.627 140.14V149.779H203.281V136.103C203.281 134.82 204.273 133.943 205.574 133.943C206.503 133.943 207.246 134.288 207.773 135.258L211.862 143.739Z" fill="black"/>
<path d="M60.129 146.806L60.8725 149.779H64.435L60.2219 135.727C59.9431 134.663 59.1686 133.975 58.0844 133.975H58.0224C56.9382 133.975 56.1637 134.663 55.854 135.727L51.6719 149.779H55.2344L55.9779 146.806H60.129ZM56.8453 143.707L58.0224 139.326H58.0844L59.2616 143.707H56.8453Z" fill="black"/>
<path d="M185.437 146.806L186.18 149.779H189.743L185.53 135.727C185.251 134.663 184.477 133.975 183.392 133.975H183.33C182.246 133.975 181.472 134.663 181.193 135.727L177.011 149.779H180.573L181.317 146.806H185.437ZM182.153 143.707L183.33 139.326H183.392L184.569 143.707H182.153Z" fill="black"/>
<path d="M50.7102 134.1V137.073H46.1564V140.202H50.7102V143.144H46.1564V146.649H50.7102V149.81H45.1651C43.802 149.81 42.7178 148.714 42.7178 147.337V136.603C42.7178 135.226 43.833 134.131 45.1651 134.131H50.7102V134.1Z" fill="black"/>
<path d="M176.081 134.1V137.073H171.527V140.202H176.081V143.144H171.527V146.649H176.081V149.81H170.536C169.204 149.81 168.089 148.714 168.089 147.337V136.603C168.089 135.226 169.204 134.131 170.536 134.131H176.081V134.1Z" fill="black"/>
<path d="M284.227 147.713C284.227 148.903 283.267 149.841 282.09 149.841C280.912 149.841 279.952 148.903 279.952 147.713C279.952 146.524 280.912 145.585 282.09 145.585C283.267 145.554 284.227 146.524 284.227 147.713Z" fill="black"/>
<path d="M42.1304 149.779H38.9087L35.3462 142.831C35.2222 142.581 35.0054 142.268 34.9744 141.955C34.9125 141.267 35.563 140.578 36.2445 140.578C36.2445 140.578 37.1429 140.609 37.6076 140.015C37.7934 139.796 38.0723 139.389 38.1032 138.794C38.1032 138.294 37.8554 137.793 37.6076 137.636C37.2049 137.355 36.7402 137.23 35.8108 137.23H34.6956V149.842H31.7217V136.729C31.7217 135.289 32.8679 134.131 34.2929 134.131H35.532C36.3684 134.131 37.05 134.163 37.5456 134.225C38.1962 134.319 38.7848 134.507 39.2494 134.82C39.9 135.195 40.4266 135.759 40.8293 136.51C41.2321 137.261 41.3869 137.981 41.3869 138.826C41.3869 139.921 41.0462 140.609 40.4266 141.392C39.9619 141.955 39.1565 142.362 38.444 142.706L42.1304 149.779Z" fill="black"/>
<path d="M120.816 149.779H117.594L114.032 142.831C113.877 142.581 113.691 142.268 113.66 141.955C113.598 141.267 114.249 140.578 114.93 140.578C114.93 140.578 115.828 140.609 116.293 140.015C116.479 139.796 116.789 139.389 116.789 138.794C116.789 138.294 116.51 137.793 116.262 137.636C115.859 137.355 115.395 137.23 114.465 137.23H113.381V149.842H110.407V136.729C110.407 135.289 111.553 134.131 112.978 134.131H114.218C115.054 134.131 115.736 134.163 116.2 134.225C116.851 134.319 117.439 134.507 117.904 134.82C118.555 135.195 119.081 135.759 119.453 136.51C119.856 137.261 120.042 137.981 120.042 138.826C120.042 139.921 119.701 140.609 119.081 141.392C118.617 141.955 117.811 142.362 117.099 142.706L120.816 149.779Z" fill="black"/>
<path d="M272.919 149.779H269.698L266.135 142.831C266.011 142.581 265.794 142.268 265.763 141.955C265.702 141.267 266.352 140.578 267.034 140.578C267.034 140.578 267.932 140.609 268.397 140.015C268.583 139.796 268.861 139.389 268.892 138.794C268.892 138.294 268.613 137.793 268.397 137.636C267.963 137.355 267.529 137.23 266.6 137.23H265.485V149.842H262.511V136.729C262.511 135.289 263.657 134.131 265.082 134.131H266.321C267.158 134.131 267.839 134.163 268.304 134.225C268.985 134.319 269.543 134.507 270.008 134.82C270.658 135.195 271.185 135.759 271.556 136.51C271.959 137.261 272.114 137.981 272.114 138.826C272.114 139.921 271.804 140.609 271.154 141.392C270.689 141.955 269.884 142.362 269.171 142.706L272.919 149.779Z" fill="black"/>
<path d="M76.1439 149.81C80.419 149.81 83.9195 146.273 83.9195 141.955C83.9195 137.636 80.419 134.1 76.1439 134.1H73.7896C72.6744 134.1 71.745 134.945 71.6211 136.071V147.87C71.745 148.965 72.6434 149.841 73.7896 149.841H76.1439V149.81ZM79.2108 145.147C78.4054 145.992 77.3831 146.399 76.1749 146.399H74.9358V137.448H76.1749C77.4141 137.448 78.4054 137.855 79.2108 138.731C80.0162 139.576 80.419 140.672 80.419 142.08C80.419 143.488 80.0162 144.333 79.2108 145.147Z" fill="black"/>
<path d="M109.354 134.1H100.092V137.229H103.19V149.81H106.287V137.229H109.354V134.1Z" fill="black"/>
<path d="M197.24 134.1H187.978V137.229H191.044V149.81H194.142V137.229H197.24V134.1Z" fill="black"/>
<path d="M146.622 134.1H137.328V137.229H140.426V149.81H143.524V137.229H146.622V134.1Z" fill="black"/>
<path d="M227.041 147.307V139.921H223.696V146.462C221.279 146.274 219.359 144.24 219.359 141.736C219.359 139.107 221.465 137.01 224.036 137.01C224.718 137.01 225.399 137.167 225.988 137.449V133.787C225.368 133.631 224.718 133.537 224.036 133.537C219.544 133.537 215.92 137.198 215.92 141.736C215.92 146.242 219.544 149.841 224.036 149.935C227.041 149.967 227.041 147.307 227.041 147.307Z" fill="black"/>
</svg>
