<svg width="338" height="33" viewBox="0 0 338 33" fill="none" xmlns="http://www.w3.org/2000/svg">
<g clip-path="url(#clip0_0_566)">
<path d="M91.7254 19.9037H87.1494V26.3527C87.1494 27.3545 87.4155 28.1232 87.9547 28.6554C88.4693 29.1459 89.1906 29.3929 90.1183 29.3929H109.84V26.0744H91.7254V19.9037Z" fill="#A8A8A8"/>
<path d="M93.2102 18.1818C95.6225 18.1818 97.6391 17.6601 99.2706 16.6165C100.734 15.6739 101.662 14.4982 102.054 13.0824C102.425 11.3432 102.229 9.8266 101.466 8.5361C100.643 7.10298 99.2111 6.12206 97.17 5.58986H101.931V2.36534H95.626V0H91.05V2.36534H84.5275V5.58986H89.2575C87.3004 6.1638 85.9209 7.14472 85.1157 8.5361C84.3524 9.8266 84.1669 11.3015 84.559 12.9607C84.9301 14.3938 85.8264 15.5904 87.2478 16.5539C88.8514 17.6392 90.84 18.1818 93.2102 18.1818ZM90.0242 8.66133C90.7875 7.9239 91.8483 7.55518 93.2067 7.55518C94.6072 7.55518 95.7205 7.94477 96.5468 8.72394C97.289 9.4405 97.6601 10.3205 97.6601 11.3641C97.6601 12.3485 97.268 13.1763 96.4873 13.8512C95.661 14.5886 94.5687 14.9573 93.2102 14.9573C91.8693 14.9573 90.8085 14.5782 90.0277 13.8199C89.3275 13.1242 88.9774 12.2615 88.9774 11.2389C88.9739 10.1988 89.324 9.33614 90.0242 8.66133Z" fill="#A8A8A8"/>
<path d="M109.655 0.153076H105.079V21.5907H109.655V12.6546H112.81V9.15181H109.655V0.153076Z" fill="#A8A8A8"/>
<path d="M138.175 7.67687C138.276 6.40723 138.329 5.15847 138.329 3.93058V0.768677H114.588V4.11494H133.753V5.80546C133.753 6.89074 133.711 7.86122 133.63 8.72388C133.525 9.75002 133.382 10.6579 133.2 11.4579H113.229V14.7764H124.016V18.9227H114.588V22.2376H133.753V29.6711H138.329V18.9227H128.592V14.7729H139.691V11.4545H137.681C137.888 10.3727 138.052 9.10999 138.175 7.67687Z" fill="#A8A8A8"/>
<path d="M167.063 0.153076H162.49V16.954H167.063V0.153076Z" fill="#A8A8A8"/>
<path d="M162.49 19.994H148.703V17.907H144.127V26.0744C144.127 27.0762 144.393 27.8866 144.932 28.5023C145.489 29.1145 146.221 29.4241 147.127 29.4241H167.066V17.907H162.49V19.994ZM162.49 26.1057H148.703V23.2812H162.49V26.1057Z" fill="#A8A8A8"/>
<path d="M150.435 11.0857C151.178 12.1919 152.27 13.2772 153.712 14.3416C155.011 15.326 156.422 16.1538 157.945 16.8287L160.049 14.279C158.008 13.3363 156.338 12.0701 155.043 10.4701C153.495 8.56387 152.725 6.41419 152.725 4.02102H158.411V0.768677H142.645V4.0245H148.181C148.181 6.45941 147.46 8.61257 146.017 10.4735C144.76 12.1119 143.101 13.3815 141.042 14.2824L142.898 16.8321C144.442 16.1573 145.874 15.3294 147.193 14.345C148.629 13.2806 149.714 12.1954 150.435 11.0857Z" fill="#A8A8A8"/>
<path d="M177.195 19.7192H172.619V26.137C172.619 27.2849 172.917 28.1127 173.515 28.6241C174.153 29.1354 175.203 29.3893 176.666 29.3893H195.306V26.0744H177.192V19.7192H177.195Z" fill="#A8A8A8"/>
<path d="M224.509 0.153076H220.059V29.699H224.509V0.153076Z" fill="#A8A8A8"/>
<path d="M213.287 10.7484H211.495C211.225 7.53431 210.535 4.97417 209.426 3.07147C208.228 1.02614 206.681 0 204.787 0C202.581 0 200.858 1.34268 199.623 4.02456C198.954 5.48203 198.492 7.1969 198.215 9.15526H195.12V0.153052H190.544V13.2668H175.675V4.02456H186.805V0.768736H171.103V12.8702C171.103 14.0564 171.4 14.9504 171.999 15.5417C172.636 16.1782 173.606 16.4948 174.905 16.4948H190.548V21.5942H195.124V12.6546H197.942C197.935 12.9676 197.924 13.2807 197.924 13.6077C197.924 17.6601 198.492 20.9472 199.623 23.4656C200.858 26.1892 202.581 27.5528 204.787 27.5528C206.95 27.5528 208.641 26.2414 209.856 23.6186C210.991 21.2046 211.586 18.0183 211.649 14.0668H213.287V29.699H217.737V0.153052H213.287V10.7484ZM206.733 21.2846C206.257 23.3334 205.609 24.3561 204.787 24.3561C203.922 24.3561 203.26 23.3334 202.809 21.2846C202.374 19.361 202.161 16.8009 202.161 13.6077C202.161 10.5571 202.378 8.1013 202.809 6.23685C203.26 4.20892 203.922 3.19669 204.787 3.19669C205.609 3.19669 206.261 4.20892 206.733 6.23685C207.164 8.1013 207.381 10.5571 207.381 13.6077C207.381 16.8009 207.164 19.361 206.733 21.2846Z" fill="#A8A8A8"/>
<path d="M247.959 9.7988H239.952V13.0546H247.959V23.0065H232.719V0.400046H228.143V21.5316C228.143 23.1282 228.556 24.3352 229.378 25.1561C230.142 25.8936 231.203 26.2623 232.564 26.2623H232.936H247.959V29.7025H252.535V0.153076H247.959V9.7988Z" fill="#A8A8A8"/>
<path d="M281.023 0.153076H276.447V29.699H281.023V0.153076Z" fill="#A8A8A8"/>
<path d="M269.273 19.9627C267.687 17.4026 266.893 14.3346 266.893 10.7483V3.99319H272.642V0.768677H256.536V3.99319H262.317V10.7796C262.317 14.3033 261.522 17.3539 259.936 19.9314C258.616 22.102 256.897 23.7508 254.775 24.8778L257.093 27.5492C258.907 26.4639 260.402 25.3056 261.575 24.0777C263.017 22.582 264.025 20.9576 264.603 19.194C265.223 20.9958 266.21 22.6237 267.572 24.0777C268.748 25.3474 270.25 26.5057 272.085 27.5492L274.742 24.8778C272.459 23.7716 270.635 22.1333 269.273 19.9627Z" fill="#A8A8A8"/>
<path d="M304.967 20.5784H291.148V18.5818H286.572V26.5683C286.572 27.4101 286.849 28.0849 287.406 28.5962C287.983 29.1493 288.764 29.4241 289.755 29.4241H309.539V18.5818H304.964V20.5784H304.967ZM304.967 26.1057H291.148V23.8934H304.967V26.1057Z" fill="#A8A8A8"/>
<path d="M292.633 16.7104C294.138 16.7104 295.497 16.4843 296.712 16.0356C297.825 15.646 298.76 15.093 299.523 14.3764V15.6669H304.932V17.5383H309.508V0.153052H304.932V6.44904H299.646C299.275 6.14293 298.83 5.87509 298.319 5.64899C297.822 5.42289 297.258 5.22114 296.617 5.03331H301.316V1.90271H295.01V0H290.434V1.90619H283.943V5.03679H288.61C286.653 5.54812 285.27 6.43164 284.468 7.67693C283.747 8.82481 283.583 10.1849 283.975 11.7606C284.367 13.0929 285.263 14.2199 286.664 15.1382C288.274 16.1852 290.263 16.7104 292.633 16.7104ZM301.165 12.1328C301.228 11.9902 301.277 11.865 301.319 11.7641C301.4 11.3536 301.452 10.9641 301.473 10.5988C301.494 10.2092 301.473 9.86139 301.41 9.55529H304.936V12.5363H300.98C301.043 12.3902 301.102 12.2546 301.165 12.1328ZM289.45 8.01781C290.231 7.343 291.296 7.00559 292.636 7.00559C293.974 7.00559 295.049 7.343 295.85 8.01781C296.572 8.61263 296.932 9.35006 296.932 10.2301C296.932 11.0684 296.572 11.8163 295.85 12.4737C295.028 13.2111 293.953 13.5798 292.636 13.5798C291.317 13.5798 290.256 13.2111 289.45 12.4737C288.771 11.8163 288.432 11.0719 288.432 10.2301C288.428 9.34658 288.768 8.60915 289.45 8.01781Z" fill="#A8A8A8"/>
<path d="M333.425 0.153052V24.2935H323.688V19.5036C325.603 19.1767 327.161 18.4288 328.355 17.26C329.448 16.1748 330.106 14.9156 330.333 13.4824C330.54 11.4963 330.106 9.75704 329.035 8.2613C327.9 6.70644 326.209 5.71508 323.965 5.28376H330.396V2.02793H323.443V0H318.867V2.02793H312.499V5.28376H318.741C316.515 5.69421 314.838 6.68557 313.703 8.2613C312.674 9.73616 312.271 11.4789 312.499 13.4824C312.663 14.9156 313.29 16.1748 314.386 17.26C315.58 18.4253 317.159 19.1836 319.116 19.5349V24.2935H312.159V27.5806H333.428V29.699H338.004V0.153052H333.425ZM318.062 15.1417C317.341 14.3451 316.98 13.3503 316.98 12.1606C316.98 11.0128 317.362 10.0318 318.125 9.21092C318.99 8.33087 320.114 7.88911 321.493 7.88911C322.894 7.88911 323.996 8.31 324.802 9.14831C325.544 9.92748 325.915 10.9293 325.915 12.1572C325.915 13.3259 325.523 14.3173 324.742 15.1382C323.898 16.0391 322.764 16.4878 321.343 16.4878C319.956 16.4948 318.867 16.0426 318.062 15.1417Z" fill="#A8A8A8"/>
<path d="M0 33H78.0361C78.0361 33 63.1389 24.6587 39.0198 24.6587C14.8972 24.6587 0 33 0 33Z" fill="#A8A8A8"/>
<path d="M19.1506 0.114789L16.7349 8.44566L16.6929 0H10.3594V11.6911H22.0286L25.3196 0.114789H19.1506Z" fill="#A8A8A8"/>
<path d="M42.4819 8.99178V5.28724H51.1752V0H42.4819H36.1484V5.28724V8.99178V11.6911H51.1752V8.99178H42.4819Z" fill="#A8A8A8"/>
<path d="M33.6519 0H27.3184V11.6911H33.6519V0Z" fill="#A8A8A8"/>
<path d="M60.8772 0H59.2072H54.9849L53.6895 11.6911H59.5853L60.0405 7.55866L60.4991 11.6911H66.395L65.0995 0H60.8772Z" fill="#A8A8A8"/>
<path d="M60.817 14.5573H59.266L59.5846 11.691H59.196L58.8844 14.5155L58.8389 14.9399H59.266H60.817H61.2441L61.1986 14.5155L60.887 11.691H60.4984L60.817 14.5573Z" fill="#A8A8A8"/>
<path d="M66.0055 11.691L67.2449 22.8916H62.1228L61.6676 18.7523L61.6291 18.4114H61.2825H58.7967H58.4536L58.4151 18.7523L57.9565 22.8916H52.8379L54.0773 11.691H53.6886L52.4072 23.2743H58.3031L58.7967 18.794H61.2825L61.7797 23.2743H67.6755L66.3941 11.691H66.0055Z" fill="#A8A8A8"/>
<path d="M51.1752 14.279V11.691H50.7901V13.8964H42.4819H42.0968V14.279V17.987V18.3697H42.4819H50.7901V22.8916H42.4819H36.5336V17.987V14.279V11.691H36.1484V14.279V17.987V23.2743H42.4819H51.1752V17.987H42.4819V14.279H51.1752Z" fill="#A8A8A8"/>
<path d="M33.2667 11.691V22.8916H27.7035V11.691H27.3184V23.2743H33.6519V11.691H33.2667Z" fill="#A8A8A8"/>
<path d="M22.0286 11.691H21.6294V11.6945L21.6574 11.7989L24.8119 22.8916H19.4412L17.064 15.573L16.3077 12.9189V15.6773V22.8916H10.7445V11.691H10.3594V23.2743H16.6929V15.6773L19.1506 23.2743H25.3196L22.0286 11.6945V11.691Z" fill="#A8A8A8"/>
</g>
<defs>
<clipPath id="clip0_0_566">
<rect width="338" height="33" fill="white"/>
</clipPath>
</defs>
</svg>
