<svg width="21" height="17" viewBox="0 0 21 17" fill="none" xmlns="http://www.w3.org/2000/svg">
<path d="M17.5063 16.9458H11.8138C11.4912 16.9458 11.2299 16.6873 11.2299 16.3683V12.759H9.77032V16.3683C9.77032 16.6873 9.50905 16.9458 9.18648 16.9458H3.494C3.17143 16.9458 2.91016 16.6873 2.91016 16.3683V9.58274C2.91016 9.26368 3.17143 9.00525 3.494 9.00525C3.81657 9.00525 4.07784 9.26368 4.07784 9.58274V15.7908H8.60264V12.1815C8.60264 11.8624 8.86391 11.604 9.18648 11.604H11.8138C12.1364 11.604 12.3976 11.8624 12.3976 12.1815V15.7908H16.9224V9.58274C16.9224 9.26368 17.1837 9.00525 17.5063 9.00525C17.8288 9.00525 18.0901 9.26368 18.0901 9.58274V16.3683C18.0901 16.6873 17.8288 16.9458 17.5063 16.9458Z" fill="white"/>
<path d="M1.30428 9.00516C1.13935 9.00516 0.975872 8.93586 0.860563 8.80304C0.651838 8.56049 0.679571 8.19523 0.924785 7.98877L10.1568 0.192618C10.3758 0.00781983 10.6983 0.00781984 10.9173 0.194061L20.0763 7.99022C20.3201 8.19812 20.3478 8.56338 20.1376 8.80448C19.9275 9.04559 19.5596 9.07302 19.3144 8.86512L10.5349 1.39236L1.68378 8.86656C1.57285 8.96041 1.43857 9.00516 1.30428 9.00516Z" fill="white"/>
</svg>
