<svg width="24" height="18" viewBox="0 0 24 18" fill="none" xmlns="http://www.w3.org/2000/svg">
<path d="M14.8267 11.751C15.5501 11.0266 15.9978 10.0266 15.9978 8.92215C15.9978 6.71326 14.2067 4.92215 11.9978 4.92215C10.8934 4.92215 9.89339 5.36993 9.16895 6.09326" stroke="#8D8D8D" stroke-width="1.5" stroke-miterlimit="10" stroke-linecap="round" stroke-linejoin="round"/>
<path d="M7.99805 8.92224C7.99805 11.1311 9.78916 12.9222 11.998 12.9222" stroke="#8D8D8D" stroke-width="1.5" stroke-miterlimit="10" stroke-linecap="round" stroke-linejoin="round"/>
<path d="M6.32324 3.24778C7.94991 2.32667 9.77213 1.92222 11.9977 1.92222C16.8721 1.92222 19.8099 3.86 22.9977 8.92222C21.2655 11.6733 19.6077 13.5011 17.6721 14.5978" stroke="#8D8D8D" stroke-width="1.5" stroke-miterlimit="10" stroke-linecap="round" stroke-linejoin="round"/>
<path d="M4.05582 4.98002C3.01471 6.00002 2.01916 7.30113 0.998047 8.92224C4.18582 13.9845 7.12249 15.9222 11.998 15.9222" stroke="#8D8D8D" stroke-width="1.5" stroke-miterlimit="10" stroke-linecap="round" stroke-linejoin="round"/>
<path d="M3.99805 0.922119L19.998 16.9221" stroke="#8D8D8D" stroke-width="1.5" stroke-miterlimit="10" stroke-linecap="round" stroke-linejoin="round"/>
</svg>
