<svg width="112" height="50" viewBox="0 0 112 50" fill="none" xmlns="http://www.w3.org/2000/svg">
<g clip-path="url(#clip0_53_16)">
<mask id="mask0_53_16" style="mask-type:luminance" maskUnits="userSpaceOnUse" x="0" y="0" width="112" height="50">
<path d="M112 0H0V50H112V0Z" fill="white"/>
</mask>
<g mask="url(#mask0_53_16)">
<path d="M0 49.2441H111.695C111.695 49.2441 90.3726 36.7969 55.8502 36.7969C21.3228 36.7969 0 49.2441 0 49.2441Z" fill="#EEEEEE"/>
<path d="M27.4094 0.171293L23.9516 12.603L23.8915 0H14.8262V17.4459H31.5286L36.2392 0.171293H27.4094Z" fill="#EEEEEE"/>
<path d="M60.8075 13.4179V7.88984H73.2504V0H60.8075H51.7422V7.88984V13.4179V17.4459H73.2504V13.4179H60.8075Z" fill="#EEEEEE"/>
<path d="M48.1659 0H39.1006V17.4459H48.1659V0Z" fill="#EEEEEE"/>
<path d="M87.1308 0H84.7405H78.6969L76.8428 17.4459H85.2817L85.9332 11.2794L86.5896 17.4459H95.0286L93.1744 0H87.1308Z" fill="#EEEEEE"/>
<path d="M87.0423 21.723H84.8223L85.2783 17.4458H84.7221L84.2761 21.6607L84.2109 22.2939H84.8223H87.0423H87.6537L87.5885 21.6607L87.1425 17.4458H86.5863L87.0423 21.723Z" fill="#EEEEEE"/>
<path d="M94.4695 17.4458L96.2435 34.1598H88.912L88.2606 27.9829L88.2055 27.4742H87.7093H84.1514H83.6603L83.6051 27.9829L82.9487 34.1598H75.6222L77.3962 17.4458H76.84L75.0059 34.7308H83.4448L84.1514 28.0452H87.7093L88.4209 34.7308H96.8599L95.0257 17.4458H94.4695Z" fill="#EEEEEE"/>
<path d="M73.2504 21.3077V17.4458H72.6992V20.7367H60.8075H60.2563V21.3077V26.841V27.412H60.8075H72.6992V34.1598H60.8075H52.2934V26.841V21.3077V17.4458H51.7422V21.3077V26.841V34.7308H60.8075H73.2504V26.841H60.8075V21.3077H73.2504Z" fill="#EEEEEE"/>
<path d="M47.6147 17.4458V34.1598H39.6518V17.4458H39.1006V34.7308H48.1659V17.4458H47.6147Z" fill="#EEEEEE"/>
<path d="M31.5286 17.4458H30.9573V17.451L30.9974 17.6068L35.5126 34.1598H27.8253L24.4227 23.2386L23.3403 19.2782V23.3944V34.1598H15.3774V17.4458H14.8262V34.7308H23.8915V23.3944L27.4094 34.7308H36.2392L31.5286 17.451V17.4458Z" fill="#EEEEEE"/>
</g>
</g>
<defs>
<clipPath id="clip0_53_16">
<rect width="112" height="50" fill="white"/>
</clipPath>
</defs>
</svg>
