<svg width="203" height="26" viewBox="0 0 203 26" fill="none" xmlns="http://www.w3.org/2000/svg">
<path d="M67.7951 11.3927H65.2842V15.0843C65.2842 15.6571 65.4323 16.0983 65.726 16.4025C66.0091 16.682 66.406 16.8246 66.914 16.8246H77.7408V14.9253H67.7951V11.3927Z" fill="white"/>
<path d="M77.6405 0.0876465H75.127V12.3573H77.6405V7.24333H79.3709V5.23722H77.6405V0.0876465Z" fill="white"/>
<path d="M68.6098 10.406C69.9327 10.406 71.0413 10.1073 71.9356 9.50986C72.7373 8.96996 73.2479 8.29851 73.4623 7.4873C73.666 6.49246 73.5575 5.6237 73.1395 4.88648C72.687 4.06704 71.9012 3.50522 70.782 3.19827H73.3961V1.35385H69.9353V0H67.4218V1.35385H63.842V3.20101H66.4375C65.3633 3.52988 64.604 4.0917 64.1648 4.88922C63.7467 5.62918 63.6435 6.47328 63.8605 7.42152C64.0642 8.24096 64.5563 8.92611 65.3369 9.47697C66.2179 10.0963 67.308 10.406 68.6098 10.406ZM66.8609 4.95773C67.2789 4.53568 67.861 4.32465 68.6098 4.32465C69.3797 4.32465 69.9909 4.54664 70.4433 4.99336C70.8508 5.40445 71.0545 5.90872 71.0545 6.50617C71.0545 7.06799 70.8402 7.54485 70.4089 7.93127C69.9565 8.35333 69.3559 8.56435 68.6098 8.56435C67.8742 8.56435 67.2921 8.34784 66.8609 7.91483C66.4772 7.51744 66.2841 7.02414 66.2841 6.43765C66.2841 5.83746 66.4772 5.34416 66.8609 4.95773Z" fill="white"/>
<path d="M93.2952 4.39596C93.3508 3.6697 93.3799 2.95441 93.3799 2.25008V0.441284H80.3464V2.35696H90.869V3.32439C90.869 3.9465 90.8452 4.50284 90.8002 4.99341C90.7446 5.57989 90.6652 6.10061 90.562 6.55829H79.5977V8.45752H85.5217V10.8309H80.3464V12.7301H90.869V16.9835H93.3799V10.8281H88.0326V8.45478H94.126V6.55555H93.0227C93.1365 5.93617 93.2291 5.2154 93.2952 4.39596Z" fill="white"/>
<path d="M109.157 0.0876465H106.646V9.70438H109.157V0.0876465Z" fill="white"/>
<path d="M106.646 11.4447H99.0763V10.2498H96.5654V14.9252C96.5654 15.498 96.711 15.9611 97.0073 16.3147C97.3116 16.6655 97.7137 16.8409 98.2111 16.8409H109.157V10.2498H106.646V11.4447ZM106.646 14.9416H99.0763V13.3247H106.646V14.9416Z" fill="white"/>
<path d="M100.027 6.34726C100.434 6.98034 101.032 7.60245 101.826 8.21086C102.538 8.77268 103.313 9.24681 104.151 9.63323L105.305 8.17524C104.186 7.63534 103.268 6.90908 102.556 5.99646C101.707 4.90571 101.283 3.67518 101.283 2.30489H104.405V0.441284H95.7509V2.30489H98.7883C98.7883 3.69985 98.3915 4.93037 97.6004 5.99646C96.9098 6.93375 95.9996 7.66 94.8672 8.17524L95.8858 9.63323C96.7352 9.24681 97.521 8.77268 98.2459 8.21086C99.037 7.60245 99.6297 6.98034 100.027 6.34726Z" fill="white"/>
<path d="M114.716 11.2858H112.205V14.9609C112.205 15.6186 112.369 16.0928 112.697 16.386C113.046 16.6793 113.623 16.8245 114.428 16.8245H124.662V14.9253H114.716V11.2858Z" fill="white"/>
<path d="M134.533 6.15263H133.549C133.401 4.31369 133.023 2.84748 132.411 1.75946C131.755 0.586487 130.906 0 129.866 0C128.654 0 127.71 0.767366 127.032 2.3021C126.667 3.13798 126.411 4.11911 126.26 5.23727H124.561V0.087699H122.05V7.59418H113.888V2.3021H119.997V0.438495H111.377V7.36397C111.377 8.04364 111.541 8.55339 111.869 8.89322C112.218 9.25772 112.75 9.4386 113.465 9.4386H122.053V12.3573H124.564V7.24339H126.112C126.106 7.42426 126.101 7.6024 126.101 7.78876C126.101 10.11 126.411 11.9901 127.035 13.4316C127.715 14.991 128.66 15.7694 129.869 15.7694C131.057 15.7694 131.985 15.0184 132.652 13.5193C133.274 12.1381 133.602 10.3156 133.636 8.05186H134.536V16.9999H136.981V0.087699H134.536V6.15263H134.533ZM130.935 12.1819C130.676 13.3549 130.319 13.9387 129.866 13.9387C129.39 13.9387 129.027 13.3522 128.781 12.1819C128.543 11.0802 128.424 9.61674 128.424 7.78602C128.424 6.04027 128.543 4.63434 128.781 3.56551C129.03 2.40624 129.393 1.82523 129.866 1.82523C130.319 1.82523 130.676 2.40624 130.935 3.56551C131.173 4.6316 131.292 6.03752 131.292 7.78602C131.29 9.61674 131.173 11.0802 130.935 12.1819Z" fill="white"/>
<path d="M140.693 0.0876465H138.251V16.9998H140.693V0.0876465Z" fill="white"/>
<path d="M153.568 5.6072H149.173V7.4708H153.568V13.1658H145.201V0.227417H142.69V12.3217C142.69 13.237 142.915 13.9276 143.368 14.3963C143.786 14.8183 144.371 15.0294 145.117 15.0294H145.32H153.568V16.9971H156.078V0.0876465H153.568V5.6072Z" fill="white"/>
<path d="M165.271 11.4256C164.4 9.9621 163.964 8.20264 163.964 6.15268V2.2857H167.12V0.441284H158.278V2.28844H161.45V6.17186C161.45 8.18894 161.014 9.9347 160.143 11.4119C159.418 12.6534 158.474 13.5961 157.31 14.2429L158.582 15.7722C159.577 15.15 160.397 14.4896 161.043 13.7852C161.834 12.9302 162.39 11.9984 162.707 10.9898C163.046 12.0203 163.591 12.9521 164.337 13.7852C164.983 14.5115 165.808 15.1747 166.813 15.7722L168.274 14.2429C167.02 13.6071 166.017 12.6698 165.271 11.4256Z" fill="white"/>
<path d="M171.719 0.0876465H169.208V16.9998H171.719V0.0876465Z" fill="white"/>
<path d="M184.866 11.7791H177.28V10.6362H174.77V15.2075C174.77 15.6871 174.923 16.0736 175.227 16.3668C175.545 16.682 175.973 16.8409 176.516 16.8409H187.377V10.6362H184.866V11.7791ZM184.866 14.9417H177.28V13.6755H184.866V14.9417Z" fill="white"/>
<path d="M178.095 9.56467C178.92 9.56467 179.667 9.43586 180.336 9.17824C180.947 8.95626 181.46 8.63835 181.878 8.23V8.96722H184.85V10.0388H187.361V0.087699H184.85V3.69158H181.947C181.744 3.51618 181.5 3.36271 181.217 3.2339C180.945 3.10509 180.635 2.98725 180.283 2.8831H182.863V1.09076H179.399V0H176.888V1.09076H173.324V2.8831H175.886C174.811 3.17635 174.052 3.68062 173.61 4.39591C173.213 5.05365 173.123 5.83198 173.338 6.73364C173.552 7.49552 174.044 8.13956 174.814 8.66849C175.7 9.26594 176.793 9.56467 178.095 9.56467ZM182.778 6.94466C182.812 6.86244 182.839 6.79119 182.863 6.73364C182.908 6.49794 182.937 6.27596 182.947 6.06493C182.958 5.84294 182.947 5.64288 182.913 5.46748H184.847V7.17213H182.675C182.712 7.08991 182.744 7.01318 182.778 6.94466ZM176.346 4.58775C176.775 4.20133 177.359 4.00675 178.095 4.00675C178.83 4.00675 179.418 4.20133 179.86 4.58775C180.257 4.92759 180.455 5.34964 180.455 5.85391C180.455 6.33351 180.257 6.76104 179.86 7.1365C179.407 7.55855 178.82 7.76958 178.095 7.76958C177.37 7.76958 176.788 7.55855 176.346 7.1365C175.973 6.76104 175.785 6.33351 175.785 5.85391C175.788 5.34964 175.973 4.92759 176.346 4.58775Z" fill="white"/>
<path d="M200.49 0.087699V13.9058H195.142V11.1624C196.195 10.9761 197.05 10.5458 197.706 9.87984C198.307 9.26046 198.667 8.53695 198.794 7.71751C198.907 6.58016 198.669 5.58533 198.079 4.72752C197.457 3.83683 196.529 3.26953 195.296 3.02287H198.825V1.15927H195.007V0H192.496V1.15927H189.001V3.02287H192.43C191.208 3.25856 190.287 3.82587 189.663 4.72752C189.097 5.57162 188.877 6.5692 189.001 7.71751C189.091 8.53695 189.438 9.25772 190.036 9.87984C190.692 10.5485 191.557 10.9816 192.631 11.1816V13.9058H188.813V15.7858H200.49V16.9999H203.001V0.087699H200.49ZM192.055 8.66575C191.658 8.20807 191.462 7.64077 191.462 6.9611C191.462 6.30336 191.671 5.74154 192.089 5.2729C192.565 4.76863 193.182 4.5165 193.938 4.5165C194.708 4.5165 195.314 4.75767 195.754 5.23727C196.161 5.68125 196.365 6.25677 196.365 6.9611C196.365 7.62981 196.15 8.19711 195.719 8.66575C195.256 9.18098 194.634 9.4386 193.851 9.4386C193.094 9.44134 192.496 9.18373 192.055 8.66575Z" fill="white"/>
<path d="M182.873 21.1602H181.717V25.9096H182.873V21.1602Z" fill="white"/>
<path d="M89.7099 21.1602H88.5537V25.9096H89.7099V21.1602Z" fill="white"/>
<path d="M193.544 21.1602H192.422V25.9096H193.544V21.1602Z" fill="white"/>
<path d="M72.6292 23.5362C72.6292 23.2429 72.6186 22.9661 72.6001 22.7113C72.5683 22.2481 72.3911 21.8535 72.0709 21.5438C71.7508 21.2341 71.3221 21.0779 70.7956 21.0779C70.2929 21.0779 69.8669 21.2314 69.5283 21.5328C69.1922 21.8343 69.007 22.2289 68.9779 22.7031C68.962 22.9497 68.9541 23.2265 68.9541 23.528C68.9541 23.8294 68.962 24.1145 68.9779 24.3748C69.007 24.8791 69.1922 25.2792 69.5309 25.567C69.8696 25.8547 70.2956 26 70.7956 26C71.3539 26 71.7905 25.8465 72.0947 25.545C72.399 25.2436 72.5683 24.8489 72.6001 24.3776C72.6186 24.1117 72.6292 23.8294 72.6292 23.5362ZM71.4941 23.4786C71.4915 23.7664 71.4835 24.0295 71.4677 24.2624C71.4465 24.5694 71.383 24.8051 71.2798 24.9586C71.1713 25.1175 71.0073 25.197 70.7956 25.197C70.5972 25.197 70.4305 25.112 70.3061 24.9421C70.1844 24.7749 70.1156 24.5557 70.0971 24.2844C70.0892 24.1364 70.0839 23.898 70.0812 23.5636C70.0786 23.2292 70.0839 22.9771 70.0971 22.7908C70.113 22.5194 70.1844 22.2974 70.3088 22.1357C70.4358 21.9686 70.5998 21.8836 70.793 21.8836C71.0046 21.8836 71.174 21.9795 71.2904 22.1659C71.4042 22.3468 71.4703 22.5578 71.4835 22.7935C71.4915 22.9579 71.4941 23.1881 71.4941 23.4786Z" fill="white"/>
<path d="M84.7518 25.0436L84.7545 25.0518L85.0349 25.9096H86.2309L84.519 21.1602H83.5533L81.8467 25.9096H83.0347L83.3231 25.0408H84.7518V25.0436ZM83.5877 24.2488L84.0639 22.6921L84.0956 22.7935C84.1009 22.8127 84.3206 23.5801 84.4396 23.9939C84.4793 24.1337 84.5084 24.2351 84.5137 24.2488L84.5243 24.2899H83.5744L83.5877 24.2488Z" fill="white"/>
<path d="M115.415 25.0436L115.418 25.0518L115.698 25.9096H116.894L115.182 21.1602H114.216L112.51 25.9096H113.698L113.986 25.0408H115.415V25.0436ZM114.248 24.2488L114.724 22.6921L114.756 22.7935C114.767 22.8237 115.169 24.2351 115.171 24.2488L115.185 24.2899H114.235L114.248 24.2488Z" fill="white"/>
<path d="M162.585 25.0436L162.587 25.0518L162.868 25.9096H164.064L162.352 21.1602H161.386L159.68 25.9096H160.868L161.159 25.0408H162.585V25.0436ZM161.418 24.2488C161.418 24.2488 161.855 22.821 161.863 22.7935L161.894 22.6921L161.926 22.7935C161.934 22.821 162.339 24.2351 162.341 24.2488L162.352 24.2899H161.402L161.418 24.2488Z" fill="white"/>
<path d="M186.355 25.0436L186.358 25.0518L186.638 25.9096H187.834L186.123 21.1602H185.157L183.45 25.9096H184.638L184.927 25.0408H186.355V25.0436ZM185.191 24.2488C185.196 24.2351 185.63 22.821 185.638 22.7935L185.67 22.6921L185.702 22.7935C185.707 22.81 185.882 23.4184 186.009 23.8651C186.067 24.0707 186.112 24.2296 186.12 24.2515L186.13 24.2927H185.181L185.191 24.2488Z" fill="white"/>
<path d="M107.552 23.3005H105.533V23.7746C105.533 23.8732 105.559 23.9418 105.61 23.9829C105.66 24.0267 105.742 24.0486 105.851 24.0486H106.401V24.2761C106.401 24.5694 106.337 24.7941 106.21 24.9476C106.081 25.1038 105.898 25.1805 105.663 25.1805C105.472 25.1805 105.313 25.0928 105.197 24.9174C105.086 24.7502 105.012 24.531 104.977 24.2679C104.959 24.1062 104.946 23.865 104.938 23.5499C104.932 23.2402 104.94 22.9853 104.959 22.7989C104.991 22.4892 105.081 22.259 105.221 22.1138C105.364 21.9658 105.514 21.8918 105.673 21.8918C105.829 21.8918 105.98 21.9576 106.115 22.0836C106.245 22.207 106.332 22.3769 106.374 22.5906H107.541C107.507 22.1768 107.308 21.8205 106.956 21.5328C106.594 21.2368 106.157 21.0861 105.66 21.0861C105.231 21.0861 104.837 21.2121 104.491 21.4615C104.144 21.7082 103.927 22.0727 103.845 22.5386C103.792 22.8346 103.774 23.1771 103.784 23.5553C103.797 23.9363 103.826 24.2597 103.874 24.5173C103.956 24.964 104.16 25.323 104.48 25.5861C104.8 25.8492 105.192 25.9808 105.649 25.9808C106.284 25.9808 106.766 25.8245 107.078 25.5176C107.39 25.2107 107.549 24.7036 107.549 24.0103V23.3005H107.552Z" fill="white"/>
<path d="M129.285 24.3557C129.306 24.1501 129.314 23.8624 129.308 23.5061C129.303 23.1471 129.295 22.873 129.285 22.6921C129.258 22.24 129.073 21.8672 128.74 21.5849C128.404 21.3027 127.972 21.1602 127.456 21.1602H125.639V25.5588C125.639 25.6739 125.67 25.7616 125.737 25.8219C125.803 25.8795 125.901 25.9096 126.028 25.9096H127.456C127.933 25.9096 128.348 25.7863 128.692 25.5396C129.036 25.2985 129.234 24.8983 129.285 24.3557ZM128.123 24.2351C128.089 24.5201 128.001 24.7366 127.864 24.8846C127.724 25.0326 127.557 25.1094 127.372 25.1094H126.795V21.9631H127.372C127.599 21.9631 127.779 22.0536 127.909 22.2345C128.036 22.4126 128.107 22.6099 128.123 22.821C128.139 22.9936 128.147 23.2293 128.15 23.5198C128.152 23.8185 128.142 24.057 128.123 24.2351Z" fill="white"/>
<path d="M153.509 23.3005H151.491V23.7746C151.491 23.8732 151.517 23.9418 151.567 23.9829C151.618 24.0267 151.7 24.0486 151.808 24.0486H152.361V24.2761C152.361 24.5666 152.298 24.7941 152.171 24.9476C152.041 25.1038 151.858 25.1805 151.623 25.1805C151.43 25.1805 151.274 25.0928 151.157 24.9174C151.043 24.7502 150.969 24.531 150.938 24.2679C150.919 24.1035 150.903 23.8623 150.898 23.5499C150.893 23.2374 150.901 22.9853 150.919 22.7989C150.951 22.4892 151.041 22.259 151.181 22.1138C151.324 21.9658 151.477 21.8918 151.633 21.8918C151.79 21.8918 151.94 21.9576 152.075 22.0836C152.205 22.2042 152.292 22.3769 152.337 22.5906H153.504C153.467 22.1768 153.271 21.8205 152.919 21.5328C152.554 21.2368 152.12 21.0861 151.626 21.0861C151.197 21.0861 150.803 21.2121 150.453 21.4615C150.107 21.7082 149.89 22.0727 149.808 22.5386C149.755 22.8373 149.736 23.1799 149.747 23.5553C149.76 23.9363 149.789 24.2597 149.837 24.5173C149.919 24.964 150.123 25.323 150.443 25.5861C150.763 25.8492 151.155 25.9808 151.612 25.9808C152.247 25.9808 152.729 25.8245 153.041 25.5176C153.356 25.2107 153.515 24.7036 153.515 24.0103V23.3005H153.509Z" fill="white"/>
<path d="M167.921 24.5529C167.921 24.1446 167.802 23.8349 167.567 23.6266C167.329 23.4156 166.99 23.2594 166.559 23.1607L165.998 23.0374C165.868 23.0072 165.754 22.9415 165.659 22.8455C165.564 22.7469 165.514 22.6181 165.514 22.4619C165.514 22.2755 165.566 22.1275 165.67 22.0179C165.773 21.9083 165.918 21.8507 166.101 21.8507C166.233 21.8507 166.352 21.8891 166.453 21.9685C166.548 22.0425 166.617 22.1577 166.657 22.3111H167.8C167.77 21.9603 167.598 21.6643 167.289 21.4314C166.966 21.1902 166.582 21.0669 166.154 21.0669C165.598 21.0669 165.162 21.2067 164.855 21.4807C164.548 21.7548 164.392 22.1001 164.392 22.5084C164.392 22.8291 164.513 23.1086 164.752 23.3443C164.99 23.58 165.323 23.7445 165.741 23.8322L166.313 23.95C166.448 23.9774 166.561 24.0404 166.651 24.1391C166.741 24.2378 166.786 24.383 166.786 24.5721C166.786 24.753 166.728 24.9065 166.614 25.0216C166.5 25.1394 166.344 25.197 166.149 25.197C165.979 25.197 165.844 25.1504 165.744 25.0572C165.648 24.9695 165.588 24.8325 165.566 24.6461H164.365C164.373 25.0599 164.54 25.3888 164.857 25.6245C165.188 25.8684 165.603 25.9917 166.09 25.9917C166.646 25.9917 167.096 25.8574 167.426 25.5916C167.755 25.334 167.921 24.9832 167.921 24.5529Z" fill="white"/>
<path d="M172.057 24.5529C172.057 24.1446 171.938 23.8349 171.703 23.6266C171.465 23.4156 171.126 23.2594 170.695 23.1607L170.134 23.0374C170.004 23.0072 169.888 22.9415 169.795 22.8455C169.7 22.7469 169.65 22.6181 169.65 22.4619C169.65 22.2755 169.703 22.1275 169.806 22.0179C169.909 21.9083 170.054 21.8507 170.237 21.8507C170.369 21.8507 170.488 21.8891 170.589 21.9685C170.687 22.0425 170.756 22.1577 170.793 22.3111H171.936C171.907 21.9603 171.735 21.6643 171.422 21.4314C171.1 21.1902 170.716 21.0669 170.29 21.0669C169.734 21.0669 169.298 21.2067 168.988 21.4807C168.681 21.7548 168.525 22.1001 168.525 22.5084C168.525 22.8264 168.647 23.1086 168.882 23.3443C169.121 23.5828 169.454 23.7472 169.872 23.8322L170.443 23.95C170.578 23.9774 170.692 24.0404 170.782 24.1391C170.872 24.2378 170.917 24.383 170.917 24.5721C170.917 24.753 170.859 24.9065 170.745 25.0216C170.631 25.1394 170.475 25.197 170.279 25.197C170.11 25.197 169.975 25.1504 169.875 25.0572C169.779 24.9695 169.721 24.8352 169.697 24.6461H168.496C168.504 25.0599 168.671 25.3888 168.988 25.6245C169.319 25.8684 169.732 25.9917 170.221 25.9917C170.777 25.9917 171.227 25.8574 171.557 25.5916C171.891 25.334 172.057 24.9832 172.057 24.5529Z" fill="white"/>
<path d="M176.444 23.5363C176.444 23.2567 176.434 22.9799 176.415 22.7113C176.383 22.2454 176.204 21.8535 175.883 21.5466C175.563 21.2369 175.135 21.0807 174.608 21.0807C174.105 21.0807 173.677 21.2342 173.341 21.5356C173.002 21.8371 172.817 22.2317 172.79 22.7059C172.775 22.9498 172.767 23.2266 172.767 23.5308C172.767 23.835 172.775 24.1173 172.79 24.3776C172.817 24.8819 173.002 25.282 173.343 25.5698C173.685 25.8575 174.108 26.0028 174.608 26.0028C175.166 26.0028 175.603 25.8493 175.907 25.5479C176.212 25.2464 176.381 24.8545 176.413 24.3804C176.434 24.0981 176.444 23.8131 176.444 23.5363ZM175.309 23.4787C175.307 23.7692 175.299 24.0323 175.283 24.2625C175.262 24.5695 175.198 24.8052 175.095 24.9586C174.986 25.1176 174.825 25.1971 174.613 25.1971C174.415 25.1971 174.248 25.1121 174.127 24.9422C174.005 24.7777 173.933 24.5558 173.918 24.2844C173.91 24.1255 173.904 23.8761 173.902 23.5637C173.899 23.2293 173.904 22.9772 173.918 22.7908C173.933 22.5195 174.005 22.2975 174.129 22.1358C174.256 21.9686 174.42 21.8837 174.613 21.8837C174.825 21.8837 174.994 21.9796 175.111 22.166C175.225 22.3468 175.291 22.5579 175.304 22.7936C175.307 22.9635 175.309 23.1937 175.309 23.4787Z" fill="white"/>
<path d="M179.767 24.5009C179.735 24.712 179.656 24.8791 179.526 24.9943C179.391 25.1148 179.259 25.1779 179.129 25.1779C178.87 25.1779 178.68 25.0518 178.563 24.8024C178.449 24.5612 178.391 24.1365 178.391 23.5335C178.391 22.9799 178.452 22.5633 178.568 22.2975C178.69 22.0235 178.878 21.8837 179.124 21.8837C179.275 21.8837 179.415 21.9495 179.547 22.0755C179.674 22.1961 179.748 22.3605 179.77 22.5606H180.95C180.865 22.1002 180.664 21.7357 180.346 21.4781C180.021 21.215 179.6 21.0807 179.098 21.0807C178.751 21.0807 178.394 21.1876 178.037 21.4013C177.679 21.6124 177.447 21.9659 177.341 22.451C177.264 22.7881 177.227 23.1471 177.23 23.5198C177.232 23.8898 177.269 24.257 177.341 24.6051C177.441 25.0765 177.661 25.4273 177.989 25.6465C178.32 25.8685 178.693 25.9809 179.098 25.9809C179.629 25.9809 180.066 25.8301 180.394 25.5369C180.714 25.2491 180.902 24.9011 180.952 24.5009H179.767Z" fill="white"/>
<path d="M198.185 23.5362C198.185 23.2566 198.174 22.9799 198.156 22.7113C198.124 22.2481 197.947 21.8535 197.627 21.5438C197.306 21.2341 196.878 21.0779 196.351 21.0779C195.849 21.0779 195.423 21.2314 195.084 21.5328C194.745 21.8343 194.56 22.2289 194.534 22.7031C194.518 22.9497 194.51 23.2265 194.51 23.528C194.51 23.8294 194.518 24.1145 194.534 24.3748C194.56 24.8791 194.748 25.2792 195.087 25.567C195.425 25.8547 195.851 26 196.351 26C196.91 26 197.346 25.8465 197.65 25.545C197.955 25.2436 198.124 24.8517 198.156 24.3776C198.174 24.098 198.185 23.813 198.185 23.5362ZM197.05 23.4786C197.047 23.7801 197.039 24.035 197.021 24.2624C197 24.5694 196.936 24.8051 196.833 24.9586C196.724 25.1175 196.56 25.197 196.349 25.197C196.148 25.197 195.983 25.112 195.862 24.9421C195.74 24.7777 195.669 24.5557 195.653 24.2844C195.645 24.1254 195.64 23.8815 195.637 23.5636C195.634 23.2484 195.64 22.9881 195.653 22.7908C195.669 22.5194 195.74 22.2974 195.864 22.1357C195.991 21.9686 196.153 21.8836 196.349 21.8836C196.56 21.8836 196.73 21.9795 196.849 22.1659C196.962 22.3468 197.029 22.5578 197.039 22.7935C197.047 22.9497 197.05 23.1772 197.05 23.4786Z" fill="white"/>
<path d="M67.231 25.9095H68.4904L66.7839 23.3827L66.7892 23.3745L68.3687 21.1573H67.0749L65.625 23.3306V21.1573H64.4688V25.5642C64.4688 25.7533 64.6354 25.9068 64.8418 25.9068H65.625V23.4594L65.6488 23.4951L67.231 25.9095Z" fill="white"/>
<path d="M75.3915 24.1584C75.4629 24.2543 75.5212 24.3639 75.5608 24.4817C75.6429 24.712 75.7222 24.9805 75.791 25.282C75.8572 25.567 75.963 25.778 76.1085 25.9096H77.3441C77.2145 25.7698 77.1007 25.5643 77.0028 25.3012C76.8917 25.0052 76.7885 24.7284 76.6933 24.4735C76.6483 24.3529 76.5954 24.2488 76.5292 24.1666C76.4631 24.0816 76.3625 23.9939 76.2276 23.9035L76.1535 23.8514L76.2435 23.8432C76.4393 23.824 76.6483 23.6952 76.8679 23.4595C77.0875 23.2211 77.196 22.9333 77.196 22.6017C77.196 22.1933 77.0478 21.848 76.7594 21.5712C76.471 21.2944 76.0636 21.1547 75.5476 21.1547H73.5791V25.5615C73.5791 25.7506 73.7458 25.9041 73.9522 25.9041H74.7353V23.9967H75.1719C75.2433 24.0049 75.3148 24.0542 75.3915 24.1584ZM74.738 21.9631H75.4894C75.6376 21.9631 75.7699 22.0207 75.8783 22.1358C75.9868 22.2482 76.0397 22.4071 76.0397 22.6072C76.0397 22.8072 75.9842 22.9662 75.8783 23.0786C75.7699 23.1937 75.6376 23.2512 75.4894 23.2512H74.738V21.9631Z" fill="white"/>
<path d="M110.279 24.1584C110.351 24.2543 110.409 24.3639 110.449 24.4817C110.533 24.7147 110.61 24.9833 110.679 25.282C110.745 25.567 110.851 25.778 110.997 25.9096H112.232C112.102 25.7698 111.989 25.5643 111.891 25.3012C111.78 25.0052 111.676 24.7284 111.581 24.4735C111.539 24.3529 111.483 24.2515 111.417 24.1666C111.351 24.0816 111.251 23.9939 111.118 23.9035L111.044 23.8514L111.134 23.8432C111.33 23.824 111.539 23.6952 111.759 23.4595C111.975 23.2211 112.087 22.9333 112.087 22.6017C112.087 22.1933 111.941 21.848 111.65 21.5712C111.362 21.2944 110.954 21.1547 110.438 21.1547H108.47V25.5615C108.47 25.7506 108.636 25.9041 108.843 25.9041H109.626V23.9967H110.063C110.131 24.0049 110.203 24.0542 110.279 24.1584ZM109.626 21.9631H110.377C110.528 21.9631 110.658 22.0207 110.766 22.1358C110.875 22.2482 110.928 22.4071 110.928 22.6072C110.928 22.8072 110.872 22.9662 110.766 23.0786C110.658 23.1937 110.528 23.2512 110.377 23.2512H109.626V21.9631Z" fill="white"/>
<path d="M147.17 24.1584C147.242 24.257 147.3 24.3639 147.339 24.4817C147.424 24.712 147.501 24.9833 147.57 25.282C147.636 25.567 147.742 25.778 147.887 25.9096H149.123C148.993 25.7698 148.879 25.5643 148.781 25.3012C148.665 24.9915 148.564 24.7202 148.472 24.4735C148.43 24.3529 148.374 24.2515 148.308 24.1666C148.242 24.0816 148.141 23.9939 148.009 23.9035L147.935 23.8514L148.025 23.8432C148.221 23.824 148.43 23.6952 148.649 23.4595C148.869 23.2211 148.977 22.9333 148.977 22.6017C148.977 22.1933 148.829 21.848 148.541 21.5712C148.252 21.2944 147.845 21.1547 147.329 21.1547H145.36V25.5615C145.36 25.7506 145.527 25.9041 145.733 25.9041H146.517V23.9967H146.953C147.022 24.0049 147.093 24.0542 147.17 24.1584ZM146.517 21.9631H147.268C147.419 21.9631 147.548 22.0207 147.657 22.1358C147.765 22.2482 147.818 22.4071 147.818 22.6072C147.818 22.8072 147.763 22.9662 147.657 23.0786C147.548 23.1937 147.419 23.2512 147.268 23.2512H146.517V21.9631Z" fill="white"/>
<path d="M91.9564 23.1718L93.5969 25.9123H94.6473V21.1602H93.4831L93.4937 24.0049L93.4699 23.961L91.8453 21.1602H90.7949V25.567C90.7949 25.7561 90.9616 25.9096 91.168 25.9096H91.9512L91.93 23.1279L91.9564 23.1718Z" fill="white"/>
<path d="M139.005 25.9096H140.055V21.1602H138.891L138.902 24.0049L138.878 23.961L137.254 21.1602H136.203V25.567C136.203 25.7561 136.37 25.9096 136.576 25.9096H137.359L137.338 23.1279L137.402 23.232L139.005 25.9096Z" fill="white"/>
<path d="M200.297 23.1718L201.937 25.9123H202.987V21.1602H201.826L201.836 24.0049L201.813 23.961L200.188 21.1602H199.138V25.567C199.138 25.7561 199.304 25.9096 199.511 25.9096H200.294L200.273 23.1279L200.297 23.1718Z" fill="white"/>
<path d="M81.4762 21.9631V21.1602H78.1318V25.5588C78.1318 25.6739 78.1636 25.7644 78.2297 25.8219C78.2959 25.8795 78.3938 25.9096 78.5208 25.9096H81.4762V25.1066H79.2881V23.9227H81.1693V23.0978H79.2881V21.9631H81.4762Z" fill="white"/>
<path d="M124.757 21.9631V21.1602H121.413V25.5588C121.413 25.6739 121.445 25.7644 121.511 25.8219C121.577 25.8795 121.675 25.9096 121.802 25.9096H124.757V25.1066H122.569V23.9227H124.451V23.0978H122.569V21.9631H124.757Z" fill="white"/>
<path d="M103.072 21.9631V21.1602H99.7275V25.5588C99.7275 25.6739 99.7593 25.7644 99.8254 25.8219C99.8916 25.8822 99.9895 25.9123 100.116 25.9123H103.072V25.1094H100.884V23.9254H102.765V23.1005H100.884V21.9659L103.072 21.9631Z" fill="white"/>
<path d="M135.325 21.9631V21.1602H131.98V25.5588C131.98 25.6739 132.012 25.7644 132.078 25.8219C132.145 25.8795 132.242 25.9096 132.369 25.9096H135.325V25.1066H133.137V23.9227H135.018V23.0978H133.137V21.9631H135.325Z" fill="white"/>
<path d="M144.479 21.9631V21.1602H141.135V25.5588C141.135 25.6739 141.167 25.7644 141.233 25.8219C141.299 25.8822 141.397 25.9123 141.524 25.9123H144.479V25.1094H142.291V23.9254H144.172V23.1005H142.291V21.9659L144.479 21.9631Z" fill="white"/>
<path d="M120.685 21.9604V21.1602H117.053V21.6891C117.053 21.785 117.079 21.8563 117.129 21.8974C117.18 21.9412 117.262 21.9631 117.37 21.9631H118.291V25.567C118.291 25.7561 118.458 25.9096 118.664 25.9096H119.447L119.45 21.9631H119.463L120.685 21.9604Z" fill="white"/>
<path d="M191.684 21.9604V21.1602H188.051V21.6891C188.051 21.785 188.077 21.8563 188.128 21.8974C188.18 21.9412 188.26 21.9631 188.368 21.9631H189.289V25.567C189.289 25.7561 189.456 25.9096 189.662 25.9096H190.445L190.448 21.9631H190.461L191.684 21.9604Z" fill="white"/>
<path d="M98.997 21.9604V21.1602H95.3643V21.6891C95.3643 21.785 95.3907 21.8563 95.441 21.8974C95.4939 21.9412 95.5733 21.9631 95.6818 21.9631H96.6052V25.567C96.6052 25.7561 96.7719 25.9096 96.9782 25.9096H97.7614L97.764 21.9631H97.7773L98.997 21.9604Z" fill="white"/>
<path d="M156.65 21.1601C156.568 21.3519 155.938 22.8483 155.922 22.8839L155.891 22.9634L155.859 22.8839C155.846 22.8538 155.396 21.8096 155.203 21.3629L155.115 21.1601H153.914L155.308 23.9363V25.567C155.308 25.7561 155.475 25.9095 155.682 25.9095H156.465L156.467 23.9199L157.856 21.1573H156.65V21.1601Z" fill="white"/>
<path d="M0 26H58.9733C58.9733 26 47.7152 19.4281 29.488 19.4281C11.2581 19.4281 0 26 0 26Z" fill="#DD2626"/>
<path d="M14.4728 0.0904396L12.6472 6.65416L12.6154 0H7.8291V9.21113H16.6477L19.1348 0.0904396H14.4728Z" fill="#086CAE"/>
<path d="M32.1047 7.08443V4.1657H38.6743V0H32.1047H27.3184V4.1657V7.08443V9.21113H38.6743V7.08443H32.1047Z" fill="#086CAE"/>
<path d="M25.4318 0H20.6455V9.21113H25.4318V0Z" fill="#086CAE"/>
<path d="M46.0061 0H44.7441H41.5532L40.5742 9.21113H45.0298L45.3738 5.95531L45.7204 9.21113H50.176L49.197 0H46.0061Z" fill="#086CAE"/>
<path d="M45.9607 11.4694H44.7886L45.0294 9.21118H44.7357L44.5002 11.4365L44.4658 11.7709H44.7886H45.9607H46.2835L46.2491 11.4365L46.0136 9.21118H45.72L45.9607 11.4694Z" fill="black"/>
<path d="M49.8819 9.21118L50.8186 18.0359H46.9477L46.6037 14.7746L46.5746 14.506H46.3127H44.4341H44.1748L44.1457 14.7746L43.7991 18.0359H39.9309L40.8675 9.21118H40.5738L39.6055 18.3374H44.0611L44.4341 14.8075H46.3127L46.6884 18.3374H51.144L50.1756 9.21118H49.8819Z" fill="black"/>
<path d="M38.6743 11.2502V9.21118H38.3833V10.9487H32.1047H31.8137V11.2502V14.1717V14.4731H32.1047H38.3833V18.0359H32.1047H27.6094V14.1717V11.2502V9.21118H27.3184V11.2502V14.1717V18.3374H32.1047H38.6743V14.1717H32.1047V11.2502H38.6743Z" fill="black"/>
<path d="M25.1408 9.21118V18.0359H20.9366V9.21118H20.6455V18.3374H25.4318V9.21118H25.1408Z" fill="black"/>
<path d="M16.6477 9.21118H16.3461V9.21392L16.3673 9.29614L18.7512 18.0359H14.6924L12.8959 12.2697L12.3244 10.1786V12.3519V18.0359H8.12014V9.21118H7.8291V18.3374H12.6154V12.3519L14.4728 18.3374H19.1348L16.6477 9.21392V9.21118Z" fill="black"/>
</svg>
