<svg width="112" height="50" viewBox="0 0 112 50" fill="none" xmlns="http://www.w3.org/2000/svg">
<path d="M0 49.2441H111.695C111.695 49.2441 90.3726 36.7969 55.8502 36.7969C21.3228 36.7969 0 49.2441 0 49.2441Z" fill="#DD2626"/>
<path d="M27.4094 0.171293L23.9516 12.603L23.8915 0H14.8262V17.4459H31.5286L36.2392 0.171293H27.4094Z" fill="#086CAE"/>
<path d="M60.8075 13.4179V7.88984H73.2504V0H60.8075H51.7422V7.88984V13.4179V17.4459H73.2504V13.4179H60.8075Z" fill="#086CAE"/>
<path d="M48.1659 0H39.1006V17.4459H48.1659V0Z" fill="#086CAE"/>
<path d="M87.1308 0H84.7405H78.6969L76.8428 17.4459H85.2817L85.9332 11.2794L86.5896 17.4459H95.0286L93.1744 0H87.1308Z" fill="#086CAE"/>
<path d="M87.0423 21.7232H84.8223L85.2783 17.446H84.7221L84.2761 21.6609L84.2109 22.2941H84.8223H87.0423H87.6537L87.5885 21.6609L87.1425 17.446H86.5863L87.0423 21.7232Z" fill="black"/>
<path d="M94.4695 17.446L96.2435 34.16H88.912L88.2606 27.9831L88.2055 27.4744H87.7093H84.1514H83.6603L83.6051 27.9831L82.9487 34.16H75.6222L77.3962 17.446H76.84L75.0059 34.731H83.4448L84.1514 28.0454H87.7093L88.4209 34.731H96.8599L95.0257 17.446H94.4695Z" fill="black"/>
<path d="M73.2504 21.3079V17.446H72.6992V20.7369H60.8075H60.2563V21.3079V26.8412V27.4122H60.8075H72.6992V34.16H60.8075H52.2934V26.8412V21.3079V17.446H51.7422V21.3079V26.8412V34.731H60.8075H73.2504V26.8412H60.8075V21.3079H73.2504Z" fill="black"/>
<path d="M47.6147 17.446V34.16H39.6518V17.446H39.1006V34.731H48.1659V17.446H47.6147Z" fill="black"/>
<path d="M31.5286 17.446H30.9573V17.4512L30.9974 17.607L35.5126 34.16H27.8253L24.4227 23.2388L23.3403 19.2784V23.3946V34.16H15.3774V17.446H14.8262V34.731H23.8915V23.3946L27.4094 34.731H36.2392L31.5286 17.4512V17.446Z" fill="black"/>
</svg>
