<svg width="23" height="22" viewBox="0 0 23 22" fill="none" xmlns="http://www.w3.org/2000/svg">
<g clip-path="url(#clip0_446_182)">
<path d="M4.61554 20.176C4.36417 20.2116 4.10731 20.2308 3.84634 20.2308C3.58492 20.2308 3.32852 20.2116 3.07715 20.176V22H4.61554V20.176Z" fill="#1D9FD9"/>
<path d="M3.84598 18.6924C5.96709 18.6924 7.69241 16.9671 7.69241 14.8464C7.69241 12.7253 5.96709 11 3.84598 11C1.72532 11 0 12.7253 0 14.8464C0 16.9671 1.72532 18.6924 3.84598 18.6924Z" fill="#1D9FD9"/>
<path d="M8.87207 22H12.8721V19.8972H14.4105V22H16.5128V19.8972H18.0517V22H22.0512V0H8.87207V22ZM13.1797 8.2692V6.7308H17.7436V8.2692H13.1797ZM17.7436 10.2308V11.7692H13.1797V10.2308H17.7436ZM13.1797 4.7692V3.2308H17.7436V4.7692H13.1797ZM13.1797 13.7308H17.7436V15.2692H13.1797V13.7308Z" fill="#3A4284"/>
</g>
<defs>
<clipPath id="clip0_446_182">
<rect width="22.0512" height="22" fill="white"/>
</clipPath>
</defs>
</svg>
