<svg width="20" height="22" viewBox="0 0 20 22" fill="none" xmlns="http://www.w3.org/2000/svg">
<g clip-path="url(#clip0_448_2)">
<path d="M3.91943 18.8123H8.62229V22H3.91943V18.8123Z" fill="#1D9FD9"/>
<path d="M1.5673 0V3.13555H0V22H2.35119V17.2446H10.1901V22H12.5413V3.13555H10.9739V0H1.5673ZM7.05451 1.56777H8.62229V3.13555H7.05451V1.56777ZM3.91897 1.56777H5.48674V3.13555H3.91897V1.56777ZM10.1901 15.6768H2.35119V14.109H10.1901V15.6768ZM10.1901 12.5417H2.35119V10.9739H10.1901V12.5417ZM10.1901 9.40617H2.35119V7.8384H10.1901V9.40617ZM10.1901 6.27063H2.35119V4.70285H10.1901V6.27063Z" fill="#3A4284"/>
<path d="M14.1089 21.9995H19.6482V10.9735H14.1089V21.9995ZM15.6767 13.3251H17.2444V14.8929H15.6767V13.3251ZM15.6767 16.4607H17.2444V18.0285H15.6767V16.4607Z" fill="#3A4284"/>
</g>
<defs>
<clipPath id="clip0_448_2">
<rect width="19.6483" height="22" fill="white"/>
</clipPath>
</defs>
</svg>
