<svg width="23" height="24" viewBox="0 0 23 24" fill="none" xmlns="http://www.w3.org/2000/svg">
<path d="M6.5 5.5L12.5 11V18.5H1V11L6.5 5.5Z" fill="black"/>
<rect x="8" y="1" width="14" height="22" fill="black"/>
<path d="M1 15.6666L6.59997 9.79999" stroke="white" stroke-width="1.2" stroke-miterlimit="10" stroke-linecap="round" stroke-linejoin="round"/>
<path d="M6.6001 9.79999L12.2001 15.6666" stroke="white" stroke-width="1.2" stroke-miterlimit="10" stroke-linecap="round" stroke-linejoin="round"/>
<path d="M1 15.6667V23" stroke="white" stroke-width="1.2" stroke-miterlimit="10" stroke-linecap="round" stroke-linejoin="round"/>
<path d="M12.1997 15.6666V22.9999" stroke="white" stroke-width="1.2" stroke-miterlimit="10" stroke-linecap="round" stroke-linejoin="round"/>
<path d="M1 23H21.9999" stroke="white" stroke-width="1.2" stroke-miterlimit="10" stroke-linecap="round" stroke-linejoin="round"/>
<path d="M8 11.2666V1" stroke="white" stroke-width="1.2" stroke-miterlimit="10" stroke-linecap="round" stroke-linejoin="round"/>
<path d="M22 23V1" stroke="white" stroke-width="1.2" stroke-miterlimit="10" stroke-linecap="round" stroke-linejoin="round"/>
<path d="M8 1H21.9999" stroke="white" stroke-width="1.2" stroke-miterlimit="10" stroke-linecap="round" stroke-linejoin="round"/>
<path d="M13.6003 3.93329H10.8003V6.86662H13.6003V3.93329Z" fill="white"/>
<path d="M19.2004 3.93329H16.4004V6.86662H19.2004V3.93329Z" fill="white"/>
<path d="M8.00018 17.1333H5.2002V20.0666H8.00018V17.1333Z" fill="white"/>
<path d="M13.6003 9.79999H10.8003V12.7333H13.6003V9.79999Z" fill="white"/>
<path d="M19.2004 9.79999H16.4004V12.7333H19.2004V9.79999Z" fill="white"/>
<path d="M19.2004 15.6666H16.4004V18.6H19.2004V15.6666Z" fill="white"/>
</svg>
