<svg width="18" height="22" viewBox="0 0 18 22" fill="none" xmlns="http://www.w3.org/2000/svg">
<g clip-path="url(#clip0_448_14)">
<path d="M11.8985 0H5.85922C5.33498 0 4.91016 0.424825 4.91016 0.94906V17.8885C4.91016 18.4128 5.33498 18.8376 5.85922 18.8376H7.714V21.6083C7.714 21.825 7.88903 22 8.10569 22H9.65206C9.86872 22 10.0437 21.825 10.0437 21.6083V18.8376H11.8985C12.4228 18.8376 12.8476 18.4128 12.8476 17.8885V0.94906C12.8476 0.424825 12.4228 0 11.8985 0ZM8.87887 16.9225C7.8321 16.9225 6.9833 16.0737 6.9833 15.0269C6.9833 13.9801 7.8321 13.1322 8.87887 13.1322C9.92564 13.1322 10.7744 13.981 10.7744 15.0269C10.7736 16.0737 9.92564 16.9225 8.87887 16.9225ZM8.87887 11.3139C7.8321 11.3139 6.9833 10.4651 6.9833 9.41838C6.9833 8.37161 7.8321 7.52281 8.87887 7.52281C9.92564 7.52281 10.7744 8.37161 10.7744 9.41838C10.7736 10.4651 9.92564 11.3139 8.87887 11.3139ZM8.87887 5.70625C7.8321 5.70625 6.9833 4.85745 6.9833 3.81068C6.9833 2.76391 7.8321 1.91596 8.87887 1.91596C9.92564 1.91596 10.7744 2.76476 10.7744 3.81068C10.7736 4.85745 9.92564 5.70625 8.87887 5.70625Z" fill="#203A72"/>
<path d="M0.0552449 1.95165L2.38924 5.93566C2.50989 6.14213 2.73164 6.26872 2.97125 6.26872H4.18115V1.35265H0.398504C0.0909302 1.35265 -0.100241 1.68656 0.0552449 1.95165Z" fill="#14A0DE"/>
<path d="M0.0552449 7.55934L2.38924 11.5434C2.50989 11.7498 2.73164 11.8764 2.97125 11.8764H4.18115V6.96119H0.398504C0.0909302 6.96119 -0.100241 7.29425 0.0552449 7.55934Z" fill="#14A0DE"/>
<path d="M0.0552449 13.167L2.38924 17.151C2.50989 17.3575 2.73164 17.4841 2.97125 17.4841H4.18115V12.568H0.398504C0.0909302 12.5689 -0.100241 12.9028 0.0552449 13.167Z" fill="#14A0DE"/>
<path d="M17.7026 1.95165C17.8581 1.68656 17.6669 1.35265 17.3593 1.35265H13.5767V6.26872H14.7866C15.0262 6.26872 15.2471 6.14213 15.3686 5.93566L17.7026 1.95165Z" fill="#14A0DE"/>
<path d="M17.3592 6.96119H13.5757V11.8773H14.7856C15.0252 11.8773 15.2461 11.7507 15.3676 11.5442L17.7016 7.56019C17.8571 7.29425 17.6668 6.96119 17.3592 6.96119Z" fill="#14A0DE"/>
<path d="M17.3593 12.5689H13.5767V17.485H14.7866C15.0262 17.485 15.2471 17.3584 15.3686 17.1519L17.7026 13.1679C17.8572 12.9028 17.666 12.5689 17.3593 12.5689Z" fill="#14A0DE"/>
</g>
<defs>
<clipPath id="clip0_448_14">
<rect width="17.7577" height="22" fill="white"/>
</clipPath>
</defs>
</svg>
