<svg width="62" height="65" viewBox="0 0 62 65" fill="none" xmlns="http://www.w3.org/2000/svg">
<path d="M8.18677 20.9202L6.95117 21.9972" stroke="white" stroke-width="2" stroke-miterlimit="10" stroke-linecap="round" stroke-linejoin="round"/>
<path d="M55.0485 29.3851V64H6.95117V29.3851" stroke="white" stroke-width="2" stroke-miterlimit="10" stroke-linecap="round" stroke-linejoin="round"/>
<path d="M6.95135 29.3851L4.61006 31.43L1 27.1948L6.95135 21.9972L8.18695 20.9202L31 1L53.813 20.9202L55.0487 21.9972L61 27.1948L57.3899 31.43L55.0487 29.3851L45.3518 20.9202L31 8.3907L16.6482 20.9202L6.95135 29.3851Z" stroke="white" stroke-width="2" stroke-miterlimit="10" stroke-linecap="round" stroke-linejoin="round"/>
<path d="M43.9922 12.3435V5.81442H50.6263V18.1369" stroke="white" stroke-width="2" stroke-miterlimit="10" stroke-linecap="round" stroke-linejoin="round"/>
<path d="M37.3547 55.3086L34.9968 50.0663L31.1518 41.5091L31.0771 41.344" stroke="white" stroke-width="2" stroke-miterlimit="10" stroke-linecap="round" stroke-linejoin="round"/>
<path d="M32.7305 55.5771L33.8638 52.8217L34.9999 50.0691L37.7973 51.0118L40.5947 51.9573" stroke="white" stroke-width="2" stroke-miterlimit="10" stroke-linecap="round" stroke-linejoin="round"/>
<path d="M31.0771 41.3441L31.1711 41.1902L35.9256 33.1142L38.8363 28.1684" stroke="white" stroke-width="2" stroke-miterlimit="10" stroke-linecap="round" stroke-linejoin="round"/>
<path d="M34.2695 27.3823L35.096 30.2496L35.9253 33.1141L38.8084 32.4847L41.6914 31.8581" stroke="white" stroke-width="2" stroke-miterlimit="10" stroke-linecap="round" stroke-linejoin="round"/>
<path d="M31.0771 41.3441L31.1601 41.3581L40.3953 43.0561L45.9901 44.0856" stroke="white" stroke-width="2" stroke-miterlimit="10" stroke-linecap="round" stroke-linejoin="round"/>
<path d="M43.5744 48.0858L41.9849 45.5709L40.3955 43.0589L42.7561 41.2713L45.1195 39.4838" stroke="white" stroke-width="2" stroke-miterlimit="10" stroke-linecap="round" stroke-linejoin="round"/>
<path d="M23.877 54.819L26.5776 49.7473L30.9865 41.4755L31.0694 41.316" stroke="white" stroke-width="2" stroke-miterlimit="10" stroke-linecap="round" stroke-linejoin="round"/>
<path d="M28.4735 55.4009L27.5254 52.5755L26.5772 49.7502L23.7218 50.5027L20.8691 51.2523" stroke="white" stroke-width="2" stroke-miterlimit="10" stroke-linecap="round" stroke-linejoin="round"/>
<path d="M31.0698 41.3161L30.9896 41.1539L26.7825 32.7701L24.209 27.6369" stroke="white" stroke-width="2" stroke-miterlimit="10" stroke-linecap="round" stroke-linejoin="round"/>
<path d="M28.8163 27.1669L27.8019 29.9698L26.7846 32.77L23.9486 31.9476L21.1152 31.1252" stroke="white" stroke-width="2" stroke-miterlimit="10" stroke-linecap="round" stroke-linejoin="round"/>
<path d="M31.0692 41.316L30.989 41.3216L21.6598 42.3846L16.0098 43.0308" stroke="white" stroke-width="2" stroke-miterlimit="10" stroke-linecap="round" stroke-linejoin="round"/>
<path d="M18.1522 47.185L19.9075 44.7876L21.66 42.3875L19.4237 40.4433L17.1875 38.4991" stroke="white" stroke-width="2" stroke-miterlimit="10" stroke-linecap="round" stroke-linejoin="round"/>
</svg>
