<svg width="62" height="65" viewBox="0 0 62 65" fill="none" xmlns="http://www.w3.org/2000/svg">
<path d="M8.18677 20.9202L6.95117 21.9972" stroke="white" stroke-width="2" stroke-miterlimit="10" stroke-linecap="round" stroke-linejoin="round"/>
<path d="M55.0485 29.3851V63.9999H6.95117V29.3851" stroke="white" stroke-width="2" stroke-miterlimit="10" stroke-linecap="round" stroke-linejoin="round"/>
<path d="M6.95135 29.3851L4.61006 31.43L1 27.1948L6.95135 21.9972L8.18695 20.9202L31 1L53.813 20.9202L55.0487 21.9972L61 27.1948L57.3899 31.43L55.0487 29.3851L45.3518 20.9202L31 8.3907L16.6482 20.9202L6.95135 29.3851Z" stroke="white" stroke-width="2" stroke-miterlimit="10" stroke-linecap="round" stroke-linejoin="round"/>
<path d="M43.9922 12.3434V5.8143H50.6263V18.1368" stroke="white" stroke-width="2" stroke-miterlimit="10" stroke-linecap="round" stroke-linejoin="round"/>
<path d="M19.0277 55.8876C20.3324 52.8832 23.9397 52.1083 23.9397 47.8339C23.9397 42.6196 18.5605 42.6196 18.5605 37.3996C18.5605 33.8498 21.0511 32.7168 22.6405 30.7111" stroke="white" stroke-width="2" stroke-miterlimit="10" stroke-linecap="round" stroke-linejoin="round"/>
<path d="M28.7767 55.8876C30.0814 52.8832 33.6887 52.1083 33.6887 47.8339C33.6887 42.6196 28.3096 42.6196 28.3096 37.3996C28.3096 33.8497 30.8001 32.7168 32.3895 30.7111" stroke="white" stroke-width="2" stroke-miterlimit="10" stroke-linecap="round" stroke-linejoin="round"/>
<path d="M38.5267 55.8876C39.8314 52.8832 43.4387 52.1083 43.4387 47.8339C43.4387 42.6196 38.0596 42.6196 38.0596 37.3996C38.0596 33.8497 40.5501 32.7168 42.1395 30.7111" stroke="white" stroke-width="2" stroke-miterlimit="10" stroke-linecap="round" stroke-linejoin="round"/>
</svg>
