<svg width="975" height="415" viewBox="0 0 975 415" fill="none" xmlns="http://www.w3.org/2000/svg">
<path d="M0 415H975C975 415 788.871 310.102 487.522 310.102C186.129 310.102 0 415 0 415Z" fill="#006EB5" fill-opacity="0.06"/>
<path d="M239.278 1.44355L209.095 106.211L208.57 0H129.438V147.024H275.235L316.354 1.44355H239.278Z" fill="#006EB5" fill-opacity="0.06"/>
<path d="M530.784 113.078V66.491H639.4V0H530.784H451.652V66.491V113.078V147.024H639.4V113.078H530.784Z" fill="#006EB5" fill-opacity="0.06"/>
<path d="M420.463 0H341.331V147.024H420.463V0Z" fill="#006EB5" fill-opacity="0.06"/>
<path d="M760.613 0H739.747H686.993L670.808 147.024H744.472L750.158 95.0559L755.889 147.024H829.553L813.368 0H760.613Z" fill="#006EB5" fill-opacity="0.06"/>
<path d="M759.869 183.069H740.491L744.472 147.024H739.616L735.723 182.544L735.154 187.881H740.491H759.869H765.206L764.637 182.544L760.744 147.024H755.889L759.869 183.069Z" fill="#006EB5" fill-opacity="0.06"/>
<path d="M824.698 147.024L840.183 287.88H776.186L770.5 235.824L770.018 231.537H765.688H734.63H730.343L729.862 235.824L724.131 287.88H660.178L675.664 147.024H670.808L654.798 292.692H728.462L734.63 236.349H765.688L771.899 292.692H845.563L829.553 147.024H824.698Z" fill="#006EB5" fill-opacity="0.06"/>
<path d="M639.4 179.569V147.024H634.588V174.758H530.784H525.973V179.569V226.201V231.012H530.784H634.588V287.88H530.784H456.464V226.201V179.569V147.024H451.652V179.569V226.201V292.692H530.784H639.4V226.201H530.784V179.569H639.4Z" fill="#006EB5" fill-opacity="0.06"/>
<path d="M415.651 147.024V287.88H346.143V147.024H341.331V292.692H420.463V147.024H415.651Z" fill="#006EB5" fill-opacity="0.06"/>
<path d="M275.235 147.024H270.248V147.068L270.598 148.38L310.011 287.88H242.908L213.206 195.842L203.758 162.465V197.155V287.88H134.249V147.024H129.438V292.692H208.57V197.155L239.278 292.692H316.354L275.235 147.068V147.024Z" fill="#006EB5" fill-opacity="0.06"/>
</svg>
