<svg width="172" height="45" viewBox="0 0 172 45" fill="none" xmlns="http://www.w3.org/2000/svg">
<g clip-path="url(#clip0_0_210)">
<path d="M120.015 5.54814C123.597 5.54814 126.624 7.32021 128.466 10.1121C128.466 10.1121 129.925 12.2915 130.942 12.8609C131.965 13.4422 133.449 13.7514 134.449 13.5388C135.429 13.3173 136.037 13.133 135.56 11.462C133.615 4.70224 127.472 0 120.015 0C110.963 0 103.872 6.97978 103.872 16.0795C103.872 25.1941 110.963 32.1753 120.015 32.1753C127.251 32.1753 132.909 28.0514 135.298 21.4046C136.018 19.4794 135.422 19.2059 135.422 19.2059C135.422 19.2059 134.828 18.3853 132.407 18.9398C129.973 19.5092 128.901 21.4136 128.901 21.4136C127.122 24.4954 123.818 26.6034 120.014 26.6034C114.268 26.6034 109.679 21.7763 109.679 16.0795C109.679 10.3262 114.27 5.54814 120.015 5.54814Z" fill="#00588A"/>
<path d="M41.7758 16.0795C41.7758 10.3262 46.3413 5.54814 52.0723 5.54814C57.7958 5.54814 62.3643 10.3262 62.3643 16.0795C62.3643 21.7748 57.7958 26.6034 52.0723 26.6034C46.3413 26.6034 41.7758 21.7748 41.7758 16.0795ZM68.1562 16.0795C68.1562 6.97978 61.0724 0 52.0723 0C43.0632 0 35.9854 6.97978 35.9854 16.0795C35.9854 25.1956 43.0618 32.1753 52.0723 32.1753C61.0724 32.1753 68.1562 25.1956 68.1562 16.0795Z" fill="#00588A"/>
<path d="M155.026 5.54814C160.745 5.54814 165.311 10.3262 165.311 16.0795C165.311 21.7748 160.745 26.6034 155.026 26.6034C149.294 26.6034 144.728 21.7763 144.728 16.0795C144.728 10.3262 149.295 5.54814 155.026 5.54814ZM155.026 32.1753C164.029 32.1753 171.11 25.1956 171.11 16.0795C171.11 6.97978 164.029 0 155.026 0C146.014 0 138.932 6.97978 138.932 16.0795C138.933 25.1941 146.015 32.1753 155.026 32.1753Z" fill="#00588A"/>
<path d="M79.4125 18.8431L93.2145 19.0066C95.0579 19.0958 95.5381 19.9967 94.8885 21.6202C93.7125 24.5533 89.6064 26.8948 86.0266 26.8502C81.6484 26.7996 79.4408 24.583 77.7713 22.8333C76.075 21.0582 72.9828 21.0285 71.9883 21.4135C70.9952 21.7748 71.462 23.303 71.8693 24.1088C74.5126 29.2555 80.2792 32.098 85.7397 32.1738C91.5554 32.2392 96.7587 29.4324 99.7973 24.5161C102.852 19.582 101.532 13.6116 94.5852 13.5239L78.8714 13.3321C76.5745 13.3009 76.3441 11.8604 77.0176 10.4867C78.4938 7.45991 82.0974 5.27306 86.2303 5.3251C90.3795 5.36821 92.6199 7.80779 93.995 9.15765C95.4549 10.5848 98.5144 11.0293 99.8642 10.3529C100.542 10.0214 100.506 9.09224 99.8821 7.91036C97.2359 2.88106 91.6743 0.080232 85.9746 0.0133332C81.1177 -0.0386992 75.5978 2.2091 72.2782 7.35585C69.5294 11.6329 69.6869 18.7316 79.4125 18.8431Z" fill="#00588A"/>
<path d="M16.6754 5.54814C22.3707 5.54814 27.0135 10.2429 27.0135 16.0468C27.0135 21.8491 22.3707 26.5529 16.6754 26.5529C10.9697 26.5529 6.3507 21.8506 6.3507 16.0468C6.35219 10.2429 10.9697 5.54814 16.6754 5.54814ZM5.32938 44.5992C6.35219 44.4951 6.40571 43.23 6.40571 43.23V28.597C9.17978 30.8359 12.7358 32.1739 16.668 32.1739C25.6845 32.1739 32.7638 25.1941 32.7638 16.078C32.7623 6.97977 25.683 0 16.6665 0C7.64557 0 0.592946 6.97978 0.592946 16.0795V37.389C0.592946 37.389 0.310484 40.2121 1.66035 42.1894C2.6014 43.563 3.90964 44.5382 5.32938 44.5992Z" fill="#00588A"/>
</g>
<defs>
<clipPath id="clip0_0_210">
<rect width="170.543" height="44.5992" fill="white" transform="translate(0.567383)"/>
</clipPath>
</defs>
</svg>
