<svg width="326" height="50" viewBox="0 0 326 50" fill="none" xmlns="http://www.w3.org/2000/svg">
<g clip-path="url(#clip0_0_203)">
<path d="M88.0332 46.43H89.6015V38.5266H88.0332V46.43ZM90.9997 46.43V38.5266H92.5213L95.6947 43.8066V38.5266H97.1529V46.43H95.5812L92.4546 41.2766V46.43H90.9997ZM103.66 43.5266L105.175 44.0166C104.941 44.88 104.554 45.52 104.017 45.94C103.473 46.3533 102.786 46.5666 101.955 46.5666C100.927 46.5666 100.076 46.2066 99.4153 45.49C98.7546 44.7733 98.4209 43.7933 98.4209 42.55C98.4209 41.2366 98.7546 40.2133 99.4186 39.4866C100.086 38.7566 100.96 38.3966 102.048 38.3966C102.996 38.3966 103.767 38.6833 104.361 39.2533C104.711 39.5933 104.978 40.08 105.155 40.71L103.606 41.0866C103.513 40.6766 103.323 40.35 103.029 40.1166C102.739 39.88 102.385 39.76 101.971 39.76C101.394 39.76 100.93 39.97 100.57 40.3933C100.213 40.8133 100.033 41.4933 100.033 42.4366C100.033 43.4366 100.206 44.1466 100.563 44.57C100.914 44.9966 101.374 45.2066 101.938 45.2066C102.352 45.2066 102.712 45.0733 103.012 44.8033C103.313 44.5266 103.526 44.1033 103.66 43.5266ZM106.416 46.43V38.5266H107.981V41.6366H111.051V38.5266H112.616V46.43H111.051V42.9733H107.981V46.43H106.416ZM114.124 46.43V38.5266H119.874V39.8666H115.689V41.6166H119.583V42.95H115.689V45.1H120.024V46.43H114.124ZM122.537 42.4733C122.537 43.37 122.74 44.05 123.147 44.51C123.551 44.97 124.068 45.2 124.689 45.2C125.313 45.2 125.827 44.9733 126.227 44.5133C126.624 44.0533 126.828 43.3666 126.828 42.45C126.828 41.5433 126.634 40.87 126.244 40.42C125.853 39.9766 125.336 39.7533 124.692 39.7533C124.048 39.7533 123.528 39.9766 123.131 40.4266C122.733 40.8866 122.537 41.5666 122.537 42.4733ZM120.922 42.53C120.922 41.7266 121.042 41.05 121.275 40.5C121.452 40.1 121.696 39.7333 121.999 39.4166C122.306 39.1 122.64 38.86 123 38.7066C123.484 38.5 124.041 38.3933 124.672 38.3933C125.813 38.3933 126.731 38.7566 127.415 39.4766C128.102 40.2 128.446 41.2033 128.446 42.49C128.446 43.7633 128.106 44.7633 127.425 45.4866C126.744 46.2033 125.833 46.5666 124.696 46.5666C123.541 46.5666 122.623 46.2066 121.943 45.49C121.265 44.7733 120.922 43.7866 120.922 42.53ZM129.571 46.43V38.5266H131.096L134.266 43.8066V38.5266H135.724V46.43H134.152L131.026 41.2766V46.43H129.571ZM143.879 43.3066L142.811 40.3733L141.764 43.3066H143.879ZM146.762 46.43H145.061L144.383 44.6366H141.283L140.639 46.43H138.981L142.001 38.5266H143.656L146.762 46.43ZM147.436 38.5266H149.005V46.43H147.436V38.5266ZM151.955 41.8733H153.112C153.863 41.8733 154.334 41.84 154.517 41.7733C154.704 41.71 154.851 41.5966 154.958 41.44C155.064 41.2833 155.115 41.0833 155.115 40.8466C155.115 40.58 155.044 40.3666 154.904 40.2033C154.764 40.04 154.567 39.9366 154.317 39.8933C154.19 39.8766 153.81 39.87 153.176 39.87H151.951V41.8733H151.955ZM150.39 46.43V38.5266H153.686C154.514 38.5266 155.118 38.6 155.495 38.74C155.869 38.88 156.169 39.1366 156.396 39.4966C156.623 39.86 156.733 40.2733 156.733 40.7433C156.733 41.3366 156.563 41.8266 156.222 42.21C155.882 42.5966 155.368 42.8433 154.684 42.9433C155.024 43.1433 155.305 43.3633 155.525 43.6033C155.749 43.8466 156.042 44.2733 156.416 44.89L157.364 46.43H155.492L154.36 44.71C153.96 44.0966 153.686 43.71 153.54 43.5466C153.389 43.39 153.236 43.28 153.066 43.2166C152.899 43.1566 152.639 43.13 152.278 43.13H151.961V46.4266L150.39 46.43ZM159.666 39.8666V42.11H160.524C161.141 42.11 161.551 42.0666 161.762 41.9866C161.962 41.91 162.132 41.7733 162.252 41.5966C162.369 41.4233 162.429 41.2166 162.429 40.9833C162.429 40.6933 162.346 40.4566 162.182 40.27C162.019 40.0833 161.808 39.9666 161.555 39.92C161.365 39.8833 160.991 39.8666 160.424 39.8666H159.666ZM158.098 46.43V38.5266H160.61C161.561 38.5266 162.182 38.5633 162.472 38.6433C162.916 38.7633 163.287 39.02 163.587 39.4166C163.887 39.8133 164.034 40.3266 164.034 40.9566C164.034 41.4433 163.951 41.85 163.777 42.18C163.604 42.51 163.383 42.77 163.116 42.9566C162.853 43.1466 162.579 43.27 162.306 43.33C161.932 43.4066 161.391 43.4433 160.684 43.4433H159.663V46.4266H158.098V46.43ZM166.513 42.4733C166.513 43.37 166.714 44.05 167.121 44.51C167.528 44.97 168.042 45.2 168.666 45.2C169.286 45.2 169.8 44.9733 170.201 44.5133C170.601 44.0533 170.801 43.3666 170.801 42.45C170.801 41.5433 170.608 40.87 170.217 40.42C169.83 39.9766 169.31 39.7533 168.666 39.7533C168.022 39.7533 167.501 39.9766 167.104 40.4266C166.707 40.8866 166.513 41.5666 166.513 42.4733ZM164.898 42.53C164.898 41.7266 165.015 41.05 165.252 40.5C165.429 40.1 165.672 39.7333 165.973 39.4166C166.28 39.1 166.613 38.86 166.977 38.7066C167.454 38.5 168.015 38.3933 168.646 38.3933C169.787 38.3933 170.704 38.7566 171.389 39.4766C172.073 40.2 172.416 41.2033 172.416 42.49C172.416 43.7633 172.076 44.7633 171.392 45.4866C170.711 46.2033 169.803 46.5666 168.662 46.5666C167.514 46.5666 166.593 46.2066 165.916 45.49C165.239 44.7733 164.898 43.7866 164.898 42.53ZM175.102 41.8733H176.257C177.011 41.8733 177.478 41.84 177.665 41.7733C177.852 41.71 177.996 41.5966 178.102 41.44C178.209 41.2833 178.259 41.0833 178.259 40.8466C178.259 40.58 178.192 40.3666 178.052 40.2033C177.912 40.04 177.719 39.9366 177.458 39.8933C177.331 39.8766 176.951 39.87 176.317 39.87H175.096V41.8733H175.102ZM173.537 46.43V38.5266H176.834C177.662 38.5266 178.262 38.6 178.64 38.74C179.013 38.88 179.314 39.1366 179.541 39.4966C179.767 39.86 179.881 40.2733 179.881 40.7433C179.881 41.3366 179.711 41.8266 179.37 42.21C179.03 42.5966 178.516 42.8433 177.835 42.9433C178.172 43.1433 178.456 43.3633 178.676 43.6033C178.896 43.8466 179.193 44.2733 179.567 44.89L180.515 46.43H178.64L177.508 44.71C177.105 44.0966 176.834 43.71 176.684 43.5466C176.537 43.39 176.38 43.28 176.214 43.2166C176.05 43.1566 175.787 43.13 175.429 43.13H175.109V46.4266L173.537 46.43ZM182.994 46.43V39.8666H180.692V38.5266H186.855V39.8666H184.559V46.43H182.994ZM190.656 46.43V38.5266H196.405V39.8666H192.221V41.6166H196.111V42.95H192.221V45.1H196.552V46.43H190.656ZM197.787 46.43V38.5266H199.308L202.482 43.8066V38.5266H203.936V46.43H202.365L199.238 41.2766V46.43H197.787ZM205.485 46.43V38.5266H211.234V39.8666H207.05V41.6166H210.944V42.95H207.05V45.1H211.381V46.43H205.485ZM214.171 41.8733H215.329C216.083 41.8733 216.55 41.84 216.737 41.7733C216.917 41.7133 217.074 41.5966 217.177 41.44C217.281 41.2833 217.334 41.0833 217.334 40.8466C217.334 40.58 217.264 40.3666 217.127 40.2033C216.987 40.04 216.79 39.9366 216.533 39.8933C216.41 39.8766 216.029 39.87 215.392 39.87H214.171V41.8733ZM212.606 46.43V38.5266H215.903C216.727 38.5266 217.331 38.6 217.704 38.74C218.078 38.88 218.382 39.1366 218.609 39.4966C218.836 39.86 218.949 40.2733 218.949 40.7433C218.949 41.3366 218.779 41.8266 218.435 42.21C218.095 42.5966 217.581 42.8433 216.904 42.9433C217.244 43.1433 217.521 43.3633 217.744 43.6033C217.965 43.8466 218.258 44.2733 218.635 44.89L219.583 46.43H217.711L216.58 44.71C216.179 44.0966 215.906 43.71 215.756 43.5466C215.606 43.39 215.449 43.28 215.285 43.2166C215.122 43.1566 214.858 43.13 214.498 43.13H214.181V46.4266L212.606 46.43ZM223.921 43.5266V42.1966H227.295V45.3466C226.968 45.67 226.49 45.9533 225.87 46.2C225.249 46.4466 224.618 46.57 223.981 46.57C223.17 46.57 222.463 46.3966 221.862 46.05C221.258 45.7033 220.804 45.2066 220.501 44.5633C220.197 43.9166 220.047 43.2166 220.047 42.46C220.047 41.6366 220.217 40.9033 220.554 40.2666C220.894 39.6266 221.388 39.1366 222.042 38.7933C222.536 38.5333 223.157 38.4 223.898 38.4C224.862 38.4 225.613 38.6066 226.153 39.0166C226.694 39.43 227.044 39.9966 227.201 40.72L225.646 41.0166C225.533 40.63 225.333 40.3233 225.029 40.1C224.729 39.8733 224.351 39.76 223.901 39.76C223.217 39.76 222.673 39.98 222.269 40.4233C221.866 40.8666 221.662 41.52 221.662 42.39C221.662 43.3266 221.866 44.03 222.276 44.5C222.686 44.9666 223.22 45.2033 223.884 45.2033C224.211 45.2033 224.542 45.1366 224.869 45.0066C225.199 44.8733 225.483 44.7133 225.72 44.5266V43.5266H223.921ZM230.668 46.43V43.1066L227.829 38.5266H229.664L231.489 41.6566L233.274 38.5266H235.08L232.23 43.1166V46.43H230.668ZM243.415 43.5266L244.933 44.0166C244.7 44.88 244.313 45.52 243.772 45.94C243.232 46.3533 242.544 46.5666 241.713 46.5666C240.682 46.5666 239.838 46.2066 239.174 45.49C238.51 44.7733 238.18 43.7933 238.18 42.55C238.18 41.2366 238.513 40.2133 239.177 39.4866C239.845 38.7566 240.722 38.3966 241.807 38.3966C242.754 38.3966 243.525 38.6833 244.116 39.2533C244.47 39.5933 244.733 40.08 244.91 40.71L243.358 41.0866C243.268 40.6766 243.075 40.35 242.784 40.1166C242.494 39.88 242.144 39.76 241.727 39.76C241.153 39.76 240.686 39.97 240.328 40.3933C239.968 40.8133 239.791 41.4933 239.791 42.4366C239.791 43.4366 239.968 44.1466 240.318 44.57C240.676 44.9966 241.133 45.2066 241.697 45.2066C242.11 45.2066 242.471 45.0733 242.771 44.8033C243.068 44.5266 243.282 44.1033 243.415 43.5266ZM247.463 42.4733C247.463 43.37 247.666 44.05 248.073 44.51C248.477 44.97 248.994 45.2 249.615 45.2C250.242 45.2 250.753 44.9733 251.153 44.5133C251.554 44.0533 251.751 43.3666 251.751 42.45C251.751 41.5433 251.554 40.87 251.163 40.42C250.776 39.9766 250.259 39.7533 249.612 39.7533C248.968 39.7533 248.447 39.9766 248.053 40.4266C247.66 40.8866 247.463 41.5666 247.463 42.4733ZM245.848 42.53C245.848 41.7266 245.964 41.05 246.201 40.5C246.375 40.1 246.622 39.7333 246.922 39.4166C247.226 39.1 247.563 38.86 247.927 38.7066C248.41 38.5 248.968 38.3933 249.598 38.3933C250.743 38.3933 251.654 38.7566 252.341 39.4766C253.029 40.2 253.372 41.2033 253.372 42.49C253.372 43.7633 253.032 44.7633 252.351 45.4866C251.671 46.2033 250.76 46.5666 249.622 46.5666C248.467 46.5666 247.553 46.2066 246.872 45.49C246.191 44.7733 245.848 43.7866 245.848 42.53ZM254.474 44.9166H255.955V46.43H254.474V44.9166ZM257.337 44.9166H258.825V46C258.825 46.4366 258.788 46.7866 258.715 47.0366C258.641 47.29 258.501 47.52 258.294 47.72C258.087 47.9233 257.827 48.08 257.507 48.1933L257.216 47.57C257.517 47.47 257.73 47.33 257.854 47.1533C257.981 46.9733 258.047 46.7333 258.054 46.43H257.337V44.9166ZM260.33 46.43V38.59H261.895V45.0966H265.789V46.4266H260.33V46.43ZM267.734 46.43V39.8666H265.435V38.5266H271.595V39.8666H269.299V46.43H267.734ZM274.058 39.8666V45.1H275.226C275.663 45.1 275.98 45.0766 276.173 45.0233C276.427 44.9566 276.637 44.85 276.807 44.6933C276.974 44.54 277.111 44.2866 277.218 43.93C277.321 43.5766 277.375 43.0933 277.375 42.4833C277.375 41.8733 277.321 41.4033 277.218 41.0766C277.111 40.75 276.961 40.4933 276.774 40.3133C276.58 40.13 276.34 40.0066 276.05 39.9433C275.83 39.8933 275.402 39.8666 274.765 39.8666H274.058ZM272.493 38.5266H275.356C276 38.5266 276.494 38.5766 276.831 38.68C277.278 38.81 277.685 39.0633 277.999 39.4066C278.329 39.7566 278.572 40.1833 278.739 40.6866C278.91 41.19 278.996 41.8133 278.996 42.5533C278.996 43.2033 278.916 43.7633 278.759 44.2366C278.566 44.8133 278.286 45.2766 277.928 45.63C277.655 45.9033 277.291 46.11 276.831 46.2633C276.484 46.3766 276.023 46.43 275.446 46.43H272.496V38.5266H272.493ZM280.201 44.9166H281.686V46.43H280.201V44.9166Z" fill="#454546"/>
<path d="M54.2275 30.95H69.9743C70.3447 29.9034 70.6417 28.8367 70.8118 27.7434H55.2653L54.2275 30.95ZM58.3119 18.42L57.2641 21.6334H70.6784C70.4648 20.5367 70.1545 19.4634 69.754 18.42H58.3119Z" fill="#ED272D"/>
<path d="M32.8916 37.07L37.3464 23.37L26.9453 37.07H17.6454L37.4431 12.3133H49.2624L41.2005 37.0733H32.8916V37.07ZM8.9929 37.07L17.0515 12.31H25.3636L17.3017 37.07H8.9929ZM52.2389 37.07H43.9267L51.9886 12.31H66.0769C59.897 4.95 48.5416 0 35.5211 0C15.9069 0 0 11.2 0 24.9967C0 38.8067 15.9069 50 35.5211 50C48.912 50 60.5677 44.7767 66.6175 37.07H52.2389Z" fill="#ED272D"/>
<path d="M89.382 16.06C89.382 14.4234 90.5399 13.0967 91.9747 13.0967C93.4129 13.0967 94.5675 14.4234 94.5675 16.06C94.5675 17.6934 93.4129 19.02 91.9747 19.02C90.5399 19.02 89.382 17.6934 89.382 16.06ZM97.8176 16.1134C97.8176 12.87 95.2015 10.2367 91.9747 10.2367C88.7513 10.2367 86.1318 12.8667 86.1318 16.1134C86.1318 19.3567 88.7513 21.9934 91.9747 21.9934C95.2015 21.9934 97.8176 19.3567 97.8176 16.1134ZM140.049 31.4834C138.611 31.4834 137.456 30.1634 137.456 28.52C137.456 26.8867 138.611 25.5567 140.049 25.5567C141.471 25.5567 142.642 26.8867 142.642 28.52C142.642 30.1667 141.471 31.4834 140.049 31.4834ZM140.049 22.7C136.816 22.7 134.206 25.33 134.206 28.5767C134.206 31.8167 136.816 34.4567 140.049 34.4567C143.266 34.4567 145.892 31.8167 145.892 28.5767C145.892 25.33 143.266 22.7 140.049 22.7ZM163.017 31.4834C161.585 31.4834 160.421 30.1634 160.421 28.52C160.421 26.8867 161.585 25.5567 163.017 25.5567C164.452 25.5567 165.61 26.8867 165.61 28.52C165.61 30.1667 164.452 31.4834 163.017 31.4834ZM163.017 22.7C159.787 22.7 157.171 25.33 157.171 28.5767C157.171 31.8167 159.787 34.4567 163.017 34.4567C166.247 34.4567 168.86 31.8167 168.86 28.5767C168.86 25.33 166.247 22.7 163.017 22.7ZM155.819 16.9667C155.819 15.46 156.894 14.2467 158.202 14.2467C159.523 14.2467 160.594 15.46 160.594 16.9667C160.594 18.47 159.527 19.69 158.202 19.69C156.894 19.69 155.819 18.47 155.819 16.9667ZM163.574 17.02C163.574 15.82 163.187 14.7167 162.533 13.82H164.512V11.0267H159.78V8.82002H156.623V11.0267H151.898V13.8167H153.871C153.193 14.7467 152.826 15.8667 152.829 17.0167C152.829 19.9967 155.235 22.42 158.202 22.42C161.175 22.42 163.578 20 163.574 17.02ZM104.278 10.8567H101.128V23.2334H104.278V10.8567ZM91.621 23.82H88.4743V32.3167H104.662V29.14H91.621V23.82ZM123.238 23.3734H126.395V10.9967H123.238V14.3934H120.472V17.19H123.238V23.3734ZM113.738 23.9634H110.581V32.4567H126.775V29.2834H113.735L113.738 23.9634ZM148.725 14.1434V10.9734H130.753V14.1434H145.572V18.7734H139.015V16.1634H135.858V18.7734H130.376V21.95H149.719V18.7734H148.725V14.1434ZM231.667 13.9867V10.81H220.541V13.9867H224.089L219.907 27.2967H223.465L226.288 18.7267L229.117 27.2967H232.664L228.487 13.9867H231.667ZM242.058 27.66H249.759V33.04H252.959V27.66H260.334V24.4867H242.058V27.66ZM265.146 27.1534H277.896V32.5334H281.096V23.98H265.146V27.1534ZM179.328 19.2334C177.876 19.2334 176.688 17.9067 176.688 16.27C176.688 14.6367 177.876 13.31 179.328 13.31C180.779 13.31 181.967 14.6334 181.967 16.27C181.967 17.9067 180.779 19.2334 179.328 19.2334ZM186.779 15.03H185.117C184.52 12.41 182.151 10.4467 179.324 10.4467C176.047 10.4467 173.388 13.0767 173.388 16.3234C173.388 19.5734 176.047 22.2 179.324 22.2C182.074 22.2 184.396 20.34 185.067 17.8167H186.779V32.95H189.936V10.95H186.779V15.03ZM191.761 32.9534H194.911V10.95H191.761V32.9534ZM212.777 14.9034H207.871V17.78H212.777V24.2034H202.589V10.9534H199.432V27.4234H202.589V27.38H212.777V32.9534H215.933V10.9534H212.777V14.9034ZM234.813 32.9534H237.963V10.81H234.813V32.9534ZM280.836 10.82H277.669V22.0934H280.836V10.82ZM291.971 14.3767C293.222 14.3767 294.22 15.5067 294.22 16.9067C294.22 18.3067 293.225 19.44 291.971 19.44C290.723 19.44 289.705 18.3067 289.705 16.9067C289.705 15.5067 290.723 14.3767 291.971 14.3767ZM299.459 24.24H293.419V21.92C295.608 21.3034 297.21 19.3167 297.21 16.9567C297.21 15.6367 296.706 14.4334 295.882 13.52H298.274V10.7334H293.542V8.52002H290.392V10.7334H285.661V13.52H288.053C287.199 14.46 286.725 15.6867 286.725 16.9567C286.725 19.32 288.33 21.3034 290.519 21.9234V24.24H286.051V27.4034H299.459V32.45H302.602V10.7334H299.459V24.24ZM269.11 15.1767L271.679 21.7634H275.24L270.962 10.81H267.054L263.274 21.7634H266.837L269.11 15.1767ZM169.023 10.97H167.015V23.3534H170.171V13.77H172.63V10.9734H170.171H169.023V10.97Z" fill="#454546"/>
<path d="M111.862 22.11L114.511 16.56L117.168 22.11H120.738L116.754 13.7634H120.207V10.9667H116.09V8.77002H112.943V10.9667H108.832V13.7634H112.276L108.288 22.11H111.862ZM243.398 22.3834H246.962L251.05 15.6334L255.134 22.3834H258.698L253.823 14.1334H259.489V10.96H242.891V14.1334H248.28L243.398 22.3834ZM326 10.82H320.08V32.7H323.237V13.77H326.003V10.82H326ZM313.406 10.82H310.136L306.112 27.2967H309.375L312.048 16.37L314.721 27.2967H317.984L313.953 10.82H313.406Z" fill="#454546"/>
</g>
<defs>
<clipPath id="clip0_0_203">
<rect width="326" height="50" fill="white"/>
</clipPath>
</defs>
</svg>
