<svg width="174" height="59" viewBox="0 0 174 59" fill="none" xmlns="http://www.w3.org/2000/svg">
<path fill-rule="evenodd" clip-rule="evenodd" d="M37.4386 19.8104C25.2251 19.8104 18.7206 30.0106 13.1758 30.0106C10.7634 30.0106 8.91687 27.3608 8.91687 24.7892C8.91687 24.5232 8.93252 24.2624 8.96381 24.012L7.63109 23.7877C7.52677 24.3563 7.47461 24.9353 7.47461 25.5143C7.47461 34.1417 13.9009 39.6473 22.0172 39.6473C37.4412 39.6473 42.021 27.04 48.9324 27.04C50.0825 27.04 51.0971 27.3086 51.9551 27.7885V27.7859C51.9629 27.7911 51.9734 27.7989 51.9838 27.8041C52.0464 27.838 52.1012 27.8719 52.1585 27.9111C56.0915 30.2818 56.4879 35.4223 56.0107 38.6328C56.2636 37.0706 56.4019 35.404 56.4019 33.6279C56.3993 25.9863 48.8228 19.8104 37.4386 19.8104Z" fill="#006EB5"/>
<path fill-rule="evenodd" clip-rule="evenodd" d="M3.47868 35.5922C2.19813 33.524 1.4444 31.0307 1.4444 28.0288C1.4444 18.7937 7.54987 11.139 17.1919 11.139C26.1088 11.139 32.2952 17.8835 40.2498 17.8835C49.7901 17.8835 55.0714 13.2359 56.3989 4.15203L54.954 3.90948C54.5524 6.31672 52.9823 9.20906 50.1734 9.20906C47.5184 9.20906 44.7122 6.88006 40.6149 4.63192C36.515 2.30292 31.8153 0.057373 25.9498 0.057373C13.8457 0.057373 4.1646 9.21167 1.05579 20.3794C-0.349952 25.606 1.09491 31.8601 3.47868 35.5922Z" fill="#E66B24"/>
<path fill-rule="evenodd" clip-rule="evenodd" d="M52.156 27.9114C53.9791 29.0354 55.0066 31.1506 54.9545 33.6256C54.7928 40.3727 46.9216 44.7073 26.511 44.7073C18.4312 44.7073 7.85548 42.6521 3.47916 35.5921L3.47655 35.5947C1.09539 31.86 -0.34948 25.6058 1.05366 20.3793C0.367737 22.8491 0 25.4154 0 28.0026C0 45.3489 10.2053 58.6813 29.7241 58.6813C40.9361 58.6813 53.64 53.1365 56.0081 38.6305C56.4854 35.4226 56.089 30.2821 52.156 27.9114Z" fill="#00A866"/>
<path fill-rule="evenodd" clip-rule="evenodd" d="M80.109 43.933C71.1633 43.933 66.2236 38.0492 66.2236 29.3461C66.2236 20.6091 71.5702 14.6862 80.2707 14.6862C83.7446 14.6862 86.65 15.4973 88.8929 16.7674L87.9566 22.8572C85.831 21.5036 83.3377 20.4448 80.4402 20.4448C75.5735 20.4448 73.2106 24.0361 73.2106 29.3096C73.2106 34.6196 75.657 38.3335 80.521 38.3335C82.0728 38.3335 83.1813 38.0518 84.321 37.4363V32.4158H79.4178L78.6041 27.2283H90.4082V40.952C87.4637 42.8715 83.9924 43.933 80.109 43.933ZM103.798 43.7295C100.006 43.7295 96.8188 42.9106 93.9552 41.6066L94.9723 35.6419C97.8751 37.1911 101.101 38.2552 103.921 38.2552C105.924 38.2552 107.316 37.3998 107.316 35.7228C107.316 34.1293 106.495 33.3964 102.53 31.8811C96.8944 29.7164 94.4481 27.8777 94.4481 23.2197C94.4481 17.795 98.6966 14.8896 104.082 14.8896C107.762 14.8896 110.13 15.5807 112.582 16.7674L111.515 22.6512C108.983 21.1802 106.333 20.3665 104.171 20.3665C102.043 20.3665 101.023 21.2611 101.023 22.5651C101.023 23.9995 101.795 24.6959 105.308 26.0417C111.434 28.2898 113.886 30.4128 113.886 34.9039C113.894 41.0328 109.395 43.7295 103.798 43.7295Z" fill="#006EB5"/>
<path fill-rule="evenodd" clip-rule="evenodd" d="M6.18362 15.6094L4.08935 13.2987C1.52302 17.6829 0.0625 22.7712 0.0625 27.943H1.50737C1.51258 23.105 3.19478 18.7052 6.18362 15.6094Z" fill="url(#paint0_linear_0_185)"/>
<path fill-rule="evenodd" clip-rule="evenodd" d="M5.81067 38.2992C3.18696 35.8164 1.50476 32.4546 1.50476 27.9661V27.9426H0.0625C0.0625 33.2031 1.0014 38.0906 2.85313 42.3548L5.81067 38.2992Z" fill="url(#paint1_linear_0_185)"/>
<path fill-rule="evenodd" clip-rule="evenodd" d="M51.7726 24.2104L49.0889 26.9802C52.8027 27.035 55.0874 29.9012 55.0066 33.563H56.4514C56.454 29.9534 54.7614 26.6672 51.7726 24.2104Z" fill="url(#paint2_linear_0_185)"/>
<path fill-rule="evenodd" clip-rule="evenodd" d="M56.454 33.5634H55.0091C54.9387 36.5757 53.3295 39.1029 49.7617 40.9781L53.5304 46.1681C55.3664 42.7724 56.454 38.6073 56.454 33.5634Z" fill="url(#paint3_linear_0_185)"/>
<path fill-rule="evenodd" clip-rule="evenodd" d="M7.69132 23.7282C7.58439 24.2968 7.53223 24.8758 7.53223 25.4548C7.53223 34.0796 13.9611 39.5852 22.0748 39.5852C37.5015 39.5852 42.0786 26.9805 48.9874 26.9805C49.0213 26.9805 49.0552 26.9831 49.0943 26.9831L51.778 24.2133C48.4449 21.4723 43.5 19.7535 37.5041 19.7535C25.2931 19.7535 18.786 29.9537 13.2413 29.9537C10.8314 29.9537 8.98231 27.3039 8.98231 24.7349C8.98231 24.4689 9.00057 24.2081 9.02665 23.9577L7.69132 23.7282Z" fill="url(#paint4_linear_0_185)"/>
<path fill-rule="evenodd" clip-rule="evenodd" d="M17.2527 11.079C26.1697 11.079 32.356 17.8235 40.3106 17.8235C49.8509 17.8235 55.1296 13.1759 56.4545 4.09466L55.0097 3.85732C54.608 6.26196 53.038 9.1543 50.2291 9.1543C47.5767 9.1543 44.7652 6.8253 40.6731 4.57976C36.5733 2.24554 31.8735 0 26.008 0C16.5746 0 8.61483 5.55778 4.08984 13.2959L6.18412 15.6066C8.89129 12.8056 12.673 11.079 17.2527 11.079Z" fill="url(#paint5_linear_0_185)"/>
<path fill-rule="evenodd" clip-rule="evenodd" d="M26.5712 44.6421C19.6677 44.6421 10.9359 43.1451 5.81106 38.2993L2.85352 42.3549C7.10726 52.1429 16.1859 58.6109 29.7844 58.6109C38.7744 58.6109 48.7189 55.0509 53.5282 46.1652L49.7595 40.9752C45.3284 43.312 37.8746 44.6421 26.5712 44.6421Z" fill="url(#paint6_linear_0_185)"/>
<path fill-rule="evenodd" clip-rule="evenodd" d="M171.339 38.7009H164.104V35.9885H171.339V38.7009Z" fill="#88888A"/>
<path fill-rule="evenodd" clip-rule="evenodd" d="M173.449 43.1425H170.434V15.4005H173.449V43.1425ZM150.229 33.1927V30.4777H167.763V33.1927H150.229Z" fill="#88888A"/>
<path fill-rule="evenodd" clip-rule="evenodd" d="M160.182 42.8399H157.167V32.2877H160.182V42.8399ZM158.763 28.0653C162.683 28.0653 165.881 25.2016 165.881 21.7303C165.881 18.2642 162.683 15.4005 158.763 15.4005C154.843 15.4005 151.646 18.2668 151.646 21.7303C151.649 25.2016 154.843 28.0653 158.763 28.0653ZM158.763 18.0242C161.025 18.0242 162.803 19.683 162.803 21.7329C162.803 23.7828 161.025 25.4442 158.763 25.4442C156.502 25.4442 154.723 23.7854 154.723 21.7329C154.723 19.683 156.502 18.0242 158.763 18.0242ZM148.399 26.1066H144.479V43.1451H141.462V15.4005H144.476V23.3916H148.399V26.1066ZM138.447 18.718H121.257V16.003H138.447V18.718Z" fill="#88888A"/>
<path fill-rule="evenodd" clip-rule="evenodd" d="M135.731 34.3977H132.714V17.813H135.731V34.3977ZM126.989 34.3977H123.972V17.813H126.989V34.3977Z" fill="#88888A"/>
<path fill-rule="evenodd" clip-rule="evenodd" d="M138.747 36.2075H120.957V33.4951H138.747V36.2075Z" fill="#88888A"/>
<path fill-rule="evenodd" clip-rule="evenodd" d="M80.1249 43.8756C71.1975 43.8756 66.2656 38.0074 66.2656 29.3226C66.2656 20.5986 71.6069 14.6862 80.2892 14.6862C83.7553 14.6862 86.6476 15.5025 88.8906 16.7674L87.9517 22.8416C85.8339 21.4958 83.3432 20.4395 80.4509 20.4395C75.5973 20.4395 73.2344 24.0256 73.2344 29.2861C73.2344 34.5831 75.6807 38.2943 80.5291 38.2943C82.0783 38.2943 83.1789 38.0075 84.3212 37.3946V32.3792H79.4285L78.6122 27.1996H90.3954V40.8998C87.4614 42.8193 83.9978 43.8756 80.1249 43.8756ZM103.77 43.6722C99.9774 43.6722 96.7982 42.8584 93.945 41.5544L94.9621 35.6002C97.8545 37.152 101.078 38.2083 103.892 38.2083C105.887 38.2083 107.277 37.3528 107.277 35.6837C107.277 34.0927 106.458 33.3599 102.505 31.8498C96.8765 29.6903 94.4327 27.8569 94.4327 23.2067C94.4327 17.7845 98.6734 14.8896 104.054 14.8896C107.729 14.8896 110.092 15.5833 112.535 16.7674L111.474 22.6381C108.952 21.1672 106.297 20.3561 104.135 20.3561C102.017 20.3561 100.997 21.2506 100.997 22.5573C100.997 23.9813 101.769 24.675 105.277 26.0208C111.396 28.2637 113.839 30.3841 113.839 34.8673C113.842 40.9832 109.359 43.6722 103.77 43.6722Z" fill="#006EB5"/>
<defs>
<linearGradient id="paint0_linear_0_185" x1="8.15329" y1="15.2628" x2="-2.23078" y2="25.6468" gradientUnits="userSpaceOnUse">
<stop stop-color="#FBBA00"/>
<stop offset="0.109" stop-color="#FBBA00"/>
<stop offset="0.9332" stop-color="#CDC012"/>
<stop offset="1" stop-color="#CDC012"/>
</linearGradient>
<linearGradient id="paint1_linear_0_185" x1="-2.48126" y1="30.485" x2="7.59938" y2="40.5657" gradientUnits="userSpaceOnUse">
<stop stop-color="#CDC012"/>
<stop offset="0.0713" stop-color="#CDC012"/>
<stop offset="0.7991" stop-color="#87BB2A"/>
<stop offset="1" stop-color="#87BB2A"/>
</linearGradient>
<linearGradient id="paint2_linear_0_185" x1="48.9285" y1="24.3719" x2="57.2855" y2="32.7283" gradientUnits="userSpaceOnUse">
<stop stop-color="#81D2F1"/>
<stop offset="0.1637" stop-color="#81D2F1"/>
<stop offset="0.9103" stop-color="#00B5C1"/>
<stop offset="1" stop-color="#00B5C1"/>
</linearGradient>
<linearGradient id="paint3_linear_0_185" x1="58.5124" y1="35.6191" x2="48.8636" y2="45.268" gradientUnits="userSpaceOnUse">
<stop stop-color="#00B5C1"/>
<stop offset="0.0767" stop-color="#00B5C1"/>
<stop offset="0.7301" stop-color="#009A90"/>
<stop offset="1" stop-color="#009A90"/>
</linearGradient>
<linearGradient id="paint4_linear_0_185" x1="7.53154" y1="29.6643" x2="51.7742" y2="29.6643" gradientUnits="userSpaceOnUse">
<stop stop-color="#006EB5"/>
<stop offset="0.0702" stop-color="#006EB5"/>
<stop offset="0.937" stop-color="#81D2F1"/>
<stop offset="1" stop-color="#81D2F1"/>
</linearGradient>
<linearGradient id="paint5_linear_0_185" x1="4.09049" y1="8.90867" x2="56.4543" y2="8.90867" gradientUnits="userSpaceOnUse">
<stop stop-color="#FBBA00"/>
<stop offset="5.87728e-06" stop-color="#FBBA00"/>
<stop offset="1" stop-color="#EB5F27"/>
</linearGradient>
<linearGradient id="paint6_linear_0_185" x1="2.85471" y1="48.4534" x2="53.5287" y2="48.4534" gradientUnits="userSpaceOnUse">
<stop stop-color="#87BB2A"/>
<stop offset="0.0584" stop-color="#87BB2A"/>
<stop offset="0.9257" stop-color="#009A90"/>
<stop offset="1" stop-color="#009A90"/>
</linearGradient>
</defs>
</svg>
